<svg width="118" height="60" viewBox="0 0 118 60" fill="none" xmlns="http://www.w3.org/2000/svg">
<path d="M108.544 56.0044V54.0067H106.202V52.0089H103.838V50.0111V48.0133H101.474V46.0155V44.0178V41.9978V40V38.0022V36.0044V34.0067H99.1102V36.0044H96.7462V38.0022H94.4045H92.0405H89.6764H87.3124H84.9484H82.5844V36.0044H80.2427V34.0067H77.8787V32.0089H75.5146V34.0067H73.1506V36.0044V38.0022H70.7866V40H68.4449V41.9978H66.0809V44.0178H63.7169H61.3529V46.0155H58.9888H56.6248H54.2831H51.9191H49.5551H47.1911H44.8271H42.4854V44.0178H40.1213H37.7573V41.9978H35.3933V40H33.0293V38.0022H30.6876H28.3236V40H25.9596V41.9978H23.5955H21.2315H18.8898H16.5258H14.1618H11.7978V40H9.43375V38.0022H7.06974V36.0044V34.0067H4.72803V32.0089V30.0111V28.0133V25.9933H2.36401V28.0133V30.0111V32.0089H0V34.0067V36.0044V38.0022V40V41.9978V44.0178H2.36401V46.0155V48.0133V50.0111H4.72803V52.0089V54.0067H7.06974V56.0044H9.43375V58.0022H11.7978H14.1618V60H16.5258H18.8898H21.2315H23.5955H25.9596H28.3236H30.6876H33.0293H35.3933H37.7573H40.1213H42.4854H44.8271H47.1911H49.5551H51.9191H54.2831H56.6248H58.9888H61.3529H63.7169H66.0809H68.4449H70.7866H73.1506H75.5146H77.8787H80.2427H82.5844H84.9484H87.3124H89.6764H92.0405H94.4045H96.7462H99.1102H101.474H103.838H106.202H108.544V58.0022H110.908V56.0044H108.544Z" fill="#C1E5F5"/>
<path d="M115.636 38.0022V36.0044V34.0067H113.272V32.0089H110.908V30.0111H108.544V28.0133H106.202H103.838H101.474V25.9933V23.9956V21.9978H99.1102V20V18.0022V16.0044H96.7462V14.0067H94.4045V12.0089H92.0405V10.0111H89.6765V7.99112H87.3124H84.9484H82.5844H80.2427H77.8787H75.5147H73.1507H70.7866V10.0111H68.4449V7.99112V5.99334H66.0809V3.99556H63.7169H61.3529V1.99778H58.9889V0H56.6249H54.2831H51.9191H49.5551H47.1911H44.8271V1.99778H42.4854H40.1214V3.99556H37.7573V5.99334H35.3933V7.99112H33.0293V10.0111H30.6876V12.0089V14.0067V16.0044H28.3236H25.9596H23.5956H21.2315H18.8898H16.5258H14.1618V18.0022H11.7978H9.43377V20H7.06976V21.9978H4.72804V23.9956V25.9933V28.0133V30.0111V32.0089V34.0067H7.06976V36.0044V38.0022H9.43377V40H11.7978V41.9978H14.1618H16.5258H18.8898H21.2315H23.5956H25.9596V40H28.3236V38.0022H30.6876H33.0293V40H35.3933V41.9978H37.7573V44.0178H40.1214H42.4854V46.0155H44.8271H47.1911H49.5551H51.9191H54.2831H56.6249H58.9889H61.3529V44.0178H63.7169H66.0809V41.9978H68.4449V40H70.7866V38.0022H73.1507V36.0044V34.0067H75.5147V32.0089H77.8787V34.0067H80.2427V36.0044H82.5844V38.0022H84.9484H87.3124H89.6765H92.0405H94.4045H96.7462V36.0044H99.1102V34.0067H101.474V36.0044V38.0022V40V41.9978V44.0178V46.0155V48.0133H103.838V50.0111V52.0089H106.202V54.0067H108.544V56.0044H110.908V58.0022H113.272V56.0044V54.0067H115.636V52.0089H118V50.0111V48.0133V46.0155V44.0178V41.9978V40V38.0022H115.636Z" fill="white"/>
</svg>
