<svg width="88" height="45" viewBox="0 0 88 45" fill="none" xmlns="http://www.w3.org/2000/svg">
<g clip-path="url(#clip0_422_24863)">
<path d="M80.948 42.0033V40.505H79.2017V39.0067H77.4387V37.5083V36.01H75.6757V34.5117V33.0133V31.4983V30V28.5017V27.0033V25.505H73.9127V27.0033H72.1497V28.5017H70.4033H68.6403H66.8773H65.1143H63.3513H61.5884V27.0033H59.842V25.505H58.079V24.0067H56.316V25.505H54.553V27.0033V28.5017H52.79V30H51.0437V31.4983H49.2807V33.0133H47.5177H45.7547V34.5117H43.9917H42.2287H40.4823H38.7193H36.9563H35.1933H33.4304H31.684V33.0133H29.921H28.158V31.4983H26.395V30H24.632V28.5017H22.8857H21.1227V30H19.3597V31.4983H17.5967H15.8337H14.0873H12.3243H10.5613H8.79834V30H7.03534V28.5017H5.27235V27.0033V25.505H3.52599V24.0067V22.5083V21.01V19.495H1.76299V21.01V22.5083V24.0067H0V25.505V27.0033V28.5017V30V31.4983V33.0133H1.76299V34.5117V36.01V37.5083H3.52599V39.0067V40.505H5.27235V42.0033H7.03534V43.5017H8.79834H10.5613V45H12.3243H14.0873H15.8337H17.5967H19.3597H21.1227H22.8857H24.632H26.395H28.158H29.921H31.684H33.4304H35.1933H36.9563H38.7193H40.4823H42.2287H43.9917H45.7547H47.5177H49.2807H51.0437H52.79H54.553H56.316H58.079H59.842H61.5884H63.3513H65.1143H66.8773H68.6403H70.4033H72.1497H73.9127H75.6757H77.4387H79.2017H80.948V43.5017H82.711V42.0033H80.948Z" fill="#FFECCF"/>
<path d="M86.237 28.5017V27.0033V25.505H84.474V24.0067H82.711V22.5083H80.948V21.01H79.2017H77.4387H75.6757V19.495V17.9967V16.4983H73.9127V15V13.5017V12.0033H72.1497V10.505H70.4033V9.00667H68.6403V7.50833H66.8773V5.99335H65.1144H63.3514H61.5884H59.842H58.079H56.316H54.553H52.79V7.50833H51.0437V5.99335V4.49501H49.2807V2.99668H47.5177H45.7547V1.49834H43.9917V7.62939e-06H42.2287H40.4823H38.7193H36.9564H35.1934H33.4304V1.49834H31.684H29.921V2.99668H28.158V4.49501H26.395V5.99335H24.632V7.50833H22.8857V9.00667V10.505V12.0033H21.1227H19.3597H17.5967H15.8337H14.0873H12.3243H10.5613V13.5017H8.79835H7.03536V15H5.27236V16.4983H3.526V17.9967V19.495V21.01V22.5083V24.0067V25.505H5.27236V27.0033V28.5017H7.03536V30H8.79835V31.4983H10.5613H12.3243H14.0873H15.8337H17.5967H19.3597V30H21.1227V28.5017H22.8857H24.632V30H26.395V31.4983H28.158V33.0133H29.921H31.684V34.5117H33.4304H35.1934H36.9564H38.7193H40.4823H42.2287H43.9917H45.7547V33.0133H47.5177H49.2807V31.4983H51.0437V30H52.79V28.5017H54.553V27.0033V25.505H56.316V24.0067H58.079V25.505H59.842V27.0033H61.5884V28.5017H63.3514H65.1144H66.8773H68.6403H70.4033H72.1497V27.0033H73.9127V25.505H75.6757V27.0033V28.5017V30V31.4983V33.0133V34.5117V36.01H77.4387V37.5083V39.0067H79.2017V40.505H80.948V42.0033H82.711V43.5017H84.474V42.0033V40.505H86.237V39.0067H88V37.5083V36.01V34.5117V33.0133V31.4983V30V28.5017H86.237Z" fill="white"/>
</g>
<defs>
<clipPath id="clip0_422_24863">
<rect width="88" height="45" fill="white"/>
</clipPath>
</defs>
</svg>
