<svg width="40" height="47" viewBox="0 0 40 47" fill="none" xmlns="http://www.w3.org/2000/svg">
<rect x="20.4445" y="0.0276642" width="1.7037" height="1.7037" fill="#FFB366"/>
<rect x="18.7407" y="1.73137" width="1.7037" height="1.7037" fill="#FFD1A2"/>
<rect x="20.4445" y="1.73137" width="1.7037" height="1.7037" fill="#FAB876"/>
<rect x="18.7407" y="1.73137" width="1.7037" height="1.7037" fill="#FBA152"/>
<rect x="20.4445" y="1.73137" width="1.7037" height="1.7037" fill="#F9B46B"/>
<rect x="18.7407" y="3.43507" width="1.7037" height="1.7037" fill="#FDA54E"/>
<rect x="20.4445" y="3.43507" width="1.7037" height="1.7037" fill="#FEAC58"/>
<rect x="18.7407" y="5.13878" width="1.7037" height="1.7037" fill="#FEB55E"/>
<rect x="20.4445" y="5.13878" width="1.7037" height="1.7037" fill="#FFBA61"/>
<rect x="18.7407" y="5.13878" width="1.7037" height="1.7037" fill="#FEBD64"/>
<rect x="20.4445" y="5.13878" width="1.7037" height="1.7037" fill="#FFBF6B"/>
<rect x="18.7407" y="6.84248" width="1.7037" height="1.7037" fill="#FEC569"/>
<rect x="20.4445" y="6.84248" width="1.7037" height="1.7037" fill="#FFC369"/>
<rect x="18.7407" y="6.84248" width="1.7037" height="1.7037" fill="#FFCC69"/>
<rect x="20.4445" y="6.84248" width="1.7037" height="1.7037" fill="#FFC754"/>
<rect x="18.7407" y="8.54618" width="1.7037" height="1.7037" fill="#FFD05D"/>
<rect x="20.4445" y="8.54618" width="1.7037" height="1.7037" fill="#FFC543"/>
<rect x="20.4445" y="8.54618" width="1.7037" height="1.7037" fill="#F49B4E"/>
<rect x="17.037" y="10.2499" width="1.7037" height="1.7037" fill="#F99A3B"/>
<rect x="18.7407" y="10.2499" width="1.7037" height="1.7037" fill="#FFD058"/>
<rect x="20.4445" y="10.2499" width="1.7037" height="1.7037" fill="#FFC737"/>
<rect x="20.4445" y="10.2499" width="1.7037" height="1.7037" fill="#F69B3D"/>
<rect x="17.037" y="10.2499" width="1.7037" height="1.7037" fill="#FA9E38"/>
<rect x="18.7407" y="10.2499" width="1.7037" height="1.7037" fill="#FFD653"/>
<rect x="20.4445" y="10.2499" width="1.7037" height="1.7037" fill="#FFCB36"/>
<rect x="20.4445" y="10.2499" width="1.7037" height="1.7037" fill="#FAA944"/>
<rect x="17.037" y="11.9536" width="1.7037" height="1.7037" fill="#FCAE44"/>
<rect x="18.7407" y="11.9536" width="1.7037" height="1.7037" fill="#FFEB6D"/>
<rect x="20.4445" y="11.9536" width="1.7037" height="1.7037" fill="#FFD646"/>
<rect x="20.4445" y="11.9536" width="1.7037" height="1.7037" fill="#FDBE5C"/>
<rect x="17.037" y="13.6573" width="1.7037" height="1.7037" fill="#FDB94C"/>
<rect x="18.7407" y="13.6573" width="1.7037" height="1.7037" fill="#FFEE6A"/>
<rect x="20.4445" y="13.6573" width="1.7037" height="1.7037" fill="#FFE253"/>
<rect x="20.4445" y="13.6573" width="1.7037" height="1.7037" fill="#FED277"/>
<rect x="17.037" y="13.6573" width="1.7037" height="1.7037" fill="#FFD376"/>
<rect x="18.7407" y="13.6573" width="1.7037" height="1.7037" fill="#FFE044"/>
<rect x="20.4445" y="13.6573" width="1.7037" height="1.7037" fill="#FFDD3C"/>
<rect x="20.4445" y="13.6573" width="1.7037" height="1.7037" fill="#FFE394"/>
<rect x="17.037" y="15.361" width="1.7037" height="1.7037" fill="#FFB137"/>
<rect x="17.037" y="15.361" width="1.7037" height="1.7037" fill="#FFE993"/>
<rect x="18.7407" y="15.361" width="1.7037" height="1.7037" fill="#FFE03F"/>
<rect x="20.4445" y="15.361" width="1.7037" height="1.7037" fill="#FFDF3A"/>
<rect x="20.4445" y="15.361" width="1.7037" height="1.7037" fill="#FFEBA3"/>
<rect x="22.1481" y="15.361" width="1.7037" height="1.7037" fill="#F9A939"/>
<rect x="17.037" y="17.0647" width="1.7037" height="1.7037" fill="#FEB63A"/>
<rect x="17.037" y="17.0647" width="1.7037" height="1.7037" fill="#FFEA7A"/>
<rect x="18.7407" y="17.0647" width="1.7037" height="1.7037" fill="#FFE23D"/>
<rect x="20.4445" y="17.0647" width="1.7037" height="1.7037" fill="#FFE33D"/>
<rect x="20.4445" y="17.0647" width="1.7037" height="1.7037" fill="#FFEB7E"/>
<rect x="22.1481" y="17.0647" width="1.7037" height="1.7037" fill="#FFCC6F"/>
<rect x="15.3333" y="17.0647" width="1.7037" height="1.7037" fill="#FCB851"/>
<rect x="17.037" y="17.0647" width="1.7037" height="1.7037" fill="#FFE79F"/>
<rect x="17.037" y="17.0647" width="1.7037" height="1.7037" fill="#FFE64F"/>
<rect x="18.7407" y="17.0647" width="1.7037" height="1.7037" fill="#FFE43E"/>
<rect x="20.4445" y="17.0647" width="1.7037" height="1.7037" fill="#FFE33D"/>
<rect x="20.4445" y="17.0647" width="1.7037" height="1.7037" fill="#FFDC38"/>
<rect x="22.1481" y="17.0647" width="1.7037" height="1.7037" fill="#FFEDA8"/>
<rect x="22.1481" y="17.0647" width="1.7037" height="1.7037" fill="#FEAD2C"/>
<rect x="13.6296" y="18.7684" width="1.7037" height="1.7037" fill="#FFB34D"/>
<rect x="13.6296" y="18.7684" width="1.7037" height="1.7037" fill="#FEAC30"/>
<rect x="15.3333" y="18.7684" width="1.7037" height="1.7037" fill="#FFDD7D"/>
<rect x="17.037" y="18.7684" width="1.7037" height="1.7037" fill="#FFEC76"/>
<rect x="17.037" y="18.7684" width="1.7037" height="1.7037" fill="#FFE33E"/>
<rect x="18.7407" y="18.7684" width="1.7037" height="1.7037" fill="#FFE33D"/>
<rect x="20.4445" y="18.7684" width="1.7037" height="1.7037" fill="#FFE23C"/>
<rect x="20.4445" y="18.7684" width="1.7037" height="1.7037" fill="#FFE23D"/>
<rect x="22.1481" y="18.7684" width="1.7037" height="1.7037" fill="#FFDA39"/>
<rect x="22.1481" y="18.7684" width="1.7037" height="1.7037" fill="#FFE56A"/>
<rect x="23.8519" y="18.7684" width="1.7037" height="1.7037" fill="#FFA624"/>
<rect x="25.5555" y="18.7684" width="1.7037" height="1.7037" fill="#FFAA40"/>
<rect x="10.2222" y="18.7684" width="1.7037" height="1.7037" fill="#FF9730"/>
<rect x="10.2222" y="18.7684" width="1.7037" height="1.7037" fill="#FFB54D"/>
<rect x="11.9259" y="18.7684" width="1.7037" height="1.7037" fill="#FFAF39"/>
<rect x="13.6296" y="18.7684" width="1.7037" height="1.7037" fill="#FFC74C"/>
<rect x="13.6296" y="18.7684" width="1.7037" height="1.7037" fill="#FFEA70"/>
<rect x="15.3333" y="18.7684" width="1.7037" height="1.7037" fill="#FFE446"/>
<rect x="17.037" y="18.7684" width="1.7037" height="1.7037" fill="#FFE440"/>
<rect x="17.037" y="18.7684" width="1.7037" height="1.7037" fill="#FFE43E"/>
<rect x="18.7407" y="18.7684" width="1.7037" height="1.7037" fill="#FFE23D"/>
<rect x="20.4445" y="18.7684" width="1.7037" height="1.7037" fill="#FFE03B"/>
<rect x="20.4445" y="18.7684" width="1.7037" height="1.7037" fill="#FFE13C"/>
<rect x="22.1481" y="18.7684" width="1.7037" height="1.7037" fill="#FFE23C"/>
<rect x="22.1481" y="18.7684" width="1.7037" height="1.7037" fill="#FFDC3C"/>
<rect x="23.8519" y="18.7684" width="1.7037" height="1.7037" fill="#FFD23F"/>
<rect x="25.5555" y="18.7684" width="1.7037" height="1.7037" fill="#FFBB2F"/>
<rect x="25.5555" y="18.7684" width="1.7037" height="1.7037" fill="#FFA72E"/>
<rect x="27.2593" y="18.7684" width="1.7037" height="1.7037" fill="#FDA032"/>
<rect x="28.963" y="18.7684" width="1.7037" height="1.7037" fill="#FFA142"/>
<rect x="28.963" y="18.7684" width="1.7037" height="1.7037" fill="#FFBB66"/>
<rect x="1.70367" y="20.4721" width="1.7037" height="1.7037" fill="#FCBA7C"/>
<rect x="1.70367" y="20.4721" width="1.7037" height="1.7037" fill="#FBA760"/>
<rect x="3.40741" y="20.4721" width="1.7037" height="1.7037" fill="#FCAC68"/>
<rect x="5.11108" y="20.4721" width="1.7037" height="1.7037" fill="#FCA04D"/>
<rect x="5.11108" y="20.4721" width="1.7037" height="1.7037" fill="#FDA24E"/>
<rect x="6.81482" y="20.4721" width="1.7037" height="1.7037" fill="#FEAD58"/>
<rect x="6.81482" y="20.4721" width="1.7037" height="1.7037" fill="#FFA749"/>
<rect x="8.51849" y="20.4721" width="1.7037" height="1.7037" fill="#FFAC39"/>
<rect x="10.2222" y="20.4721" width="1.7037" height="1.7037" fill="#FFB72D"/>
<rect x="10.2222" y="20.4721" width="1.7037" height="1.7037" fill="#FFE57A"/>
<rect x="11.9259" y="20.4721" width="1.7037" height="1.7037" fill="#FFE758"/>
<rect x="13.6296" y="20.4721" width="1.7037" height="1.7037" fill="#FFDF42"/>
<rect x="13.6296" y="20.4721" width="1.7037" height="1.7037" fill="#FFE340"/>
<rect x="15.3333" y="20.4721" width="1.7037" height="1.7037" fill="#FFE53F"/>
<rect x="17.037" y="20.4721" width="1.7037" height="1.7037" fill="#FFE33F"/>
<rect x="17.037" y="20.4721" width="1.7037" height="1.7037" fill="#FFE13D"/>
<rect x="18.7407" y="20.4721" width="1.7037" height="1.7037" fill="#FEE03C"/>
<rect x="20.4445" y="20.4721" width="1.7037" height="1.7037" fill="#FDDF3B"/>
<rect x="20.4445" y="20.4721" width="1.7037" height="1.7037" fill="#FDE03B"/>
<rect x="22.1481" y="20.4721" width="1.7037" height="1.7037" fill="#FEE13B"/>
<rect x="22.1481" y="20.4721" width="1.7037" height="1.7037" fill="#FFE23B"/>
<rect x="23.8519" y="20.4721" width="1.7037" height="1.7037" fill="#FFE13C"/>
<rect x="25.5555" y="20.4721" width="1.7037" height="1.7037" fill="#FFDB3C"/>
<rect x="25.5555" y="20.4721" width="1.7037" height="1.7037" fill="#FFD33C"/>
<rect x="27.2593" y="20.4721" width="1.7037" height="1.7037" fill="#FFC83C"/>
<rect x="28.963" y="20.4721" width="1.7037" height="1.7037" fill="#FFB831"/>
<rect x="28.963" y="20.4721" width="1.7037" height="1.7037" fill="#FFAF2A"/>
<rect x="30.6667" y="20.4721" width="1.7037" height="1.7037" fill="#FFA62F"/>
<rect x="32.3704" y="20.4721" width="1.7037" height="1.7037" fill="#FF9930"/>
<rect x="32.3704" y="20.4721" width="1.7037" height="1.7037" fill="#FF9032"/>
<rect x="34.0741" y="20.4721" width="1.7037" height="1.7037" fill="#FF8731"/>
<rect x="34.0741" y="20.4721" width="1.7037" height="1.7037" fill="#FD842D"/>
<rect x="35.7778" y="20.4721" width="1.7037" height="1.7037" fill="#FB8536"/>
<rect x="37.4815" y="20.4721" width="1.7037" height="1.7037" fill="#F9A65C"/>
<rect x="6.81482" y="22.1758" width="1.7037" height="1.7037" fill="#FFAA55"/>
<rect x="6.81482" y="22.1758" width="1.7037" height="1.7037" fill="#F4A659"/>
<rect x="8.51849" y="22.1758" width="1.7037" height="1.7037" fill="#F4A842"/>
<rect x="10.2222" y="22.1758" width="1.7037" height="1.7037" fill="#FDD86F"/>
<rect x="10.2222" y="22.1758" width="1.7037" height="1.7037" fill="#FEE66A"/>
<rect x="11.9259" y="22.1758" width="1.7037" height="1.7037" fill="#FDE87E"/>
<rect x="13.6296" y="22.1758" width="1.7037" height="1.7037" fill="#FCE34E"/>
<rect x="13.6296" y="22.1758" width="1.7037" height="1.7037" fill="#FCE140"/>
<rect x="15.3333" y="22.1758" width="1.7037" height="1.7037" fill="#FCDF3D"/>
<rect x="17.037" y="22.1758" width="1.7037" height="1.7037" fill="#FCE03C"/>
<rect x="17.037" y="22.1758" width="1.7037" height="1.7037" fill="#FCDF3B"/>
<rect x="18.7407" y="22.1758" width="1.7037" height="1.7037" fill="#FCDF3B"/>
<rect x="20.4445" y="22.1758" width="1.7037" height="1.7037" fill="#FBDE3A"/>
<rect x="20.4445" y="22.1758" width="1.7037" height="1.7037" fill="#FCDE3A"/>
<rect x="22.1481" y="22.1758" width="1.7037" height="1.7037" fill="#FBDE39"/>
<rect x="22.1481" y="22.1758" width="1.7037" height="1.7037" fill="#FBDE3A"/>
<rect x="23.8519" y="22.1758" width="1.7037" height="1.7037" fill="#FBDE3A"/>
<rect x="25.5555" y="22.1758" width="1.7037" height="1.7037" fill="#FCDE3D"/>
<rect x="25.5555" y="22.1758" width="1.7037" height="1.7037" fill="#FDDA38"/>
<rect x="27.2593" y="22.1758" width="1.7037" height="1.7037" fill="#FCD22E"/>
<rect x="28.963" y="22.1758" width="1.7037" height="1.7037" fill="#FCCB32"/>
<rect x="28.963" y="22.1758" width="1.7037" height="1.7037" fill="#FCC238"/>
<rect x="30.6667" y="22.1758" width="1.7037" height="1.7037" fill="#F6A72E"/>
<rect x="32.3704" y="22.1758" width="1.7037" height="1.7037" fill="#F09332"/>
<rect x="32.3704" y="22.1758" width="1.7037" height="1.7037" fill="#F5933B"/>
<rect x="34.0741" y="22.1758" width="1.7037" height="1.7037" fill="#FFAA55"/>
<rect x="10.2222" y="22.1758" width="1.7037" height="1.7037" fill="#F29827"/>
<rect x="11.9259" y="22.1758" width="1.7037" height="1.7037" fill="#FAC84B"/>
<rect x="13.6296" y="22.1758" width="1.7037" height="1.7037" fill="#FDE68D"/>
<rect x="13.6296" y="22.1758" width="1.7037" height="1.7037" fill="#FDEB83"/>
<rect x="15.3333" y="22.1758" width="1.7037" height="1.7037" fill="#FCEB5C"/>
<rect x="17.037" y="22.1758" width="1.7037" height="1.7037" fill="#FBE74A"/>
<rect x="17.037" y="22.1758" width="1.7037" height="1.7037" fill="#FBE140"/>
<rect x="18.7407" y="22.1758" width="1.7037" height="1.7037" fill="#FBDE3C"/>
<rect x="20.4445" y="22.1758" width="1.7037" height="1.7037" fill="#FADD3A"/>
<rect x="20.4445" y="22.1758" width="1.7037" height="1.7037" fill="#FADC39"/>
<rect x="22.1481" y="22.1758" width="1.7037" height="1.7037" fill="#F9DB39"/>
<rect x="22.1481" y="22.1758" width="1.7037" height="1.7037" fill="#F7DA3A"/>
<rect x="23.8519" y="22.1758" width="1.7037" height="1.7037" fill="#F9DE38"/>
<rect x="25.5555" y="22.1758" width="1.7037" height="1.7037" fill="#FBE644"/>
<rect x="25.5555" y="22.1758" width="1.7037" height="1.7037" fill="#FBD740"/>
<rect x="27.2593" y="22.1758" width="1.7037" height="1.7037" fill="#F7AC23"/>
<rect x="28.963" y="22.1758" width="1.7037" height="1.7037" fill="#ED9323"/>
<rect x="28.963" y="22.1758" width="1.7037" height="1.7037" fill="#FFB66D"/>
<rect x="13.6296" y="23.8795" width="1.7037" height="1.7037" fill="#F3A12C"/>
<rect x="13.6296" y="23.8795" width="1.7037" height="1.7037" fill="#FDE570"/>
<rect x="15.3333" y="23.8795" width="1.7037" height="1.7037" fill="#FDEB85"/>
<rect x="17.037" y="23.8795" width="1.7037" height="1.7037" fill="#FCEF67"/>
<rect x="17.037" y="23.8795" width="1.7037" height="1.7037" fill="#FCE94B"/>
<rect x="18.7407" y="23.8795" width="1.7037" height="1.7037" fill="#FADE3D"/>
<rect x="20.4445" y="23.8795" width="1.7037" height="1.7037" fill="#FADC3A"/>
<rect x="20.4445" y="23.8795" width="1.7037" height="1.7037" fill="#F8DA39"/>
<rect x="22.1481" y="23.8795" width="1.7037" height="1.7037" fill="#F7DA3B"/>
<rect x="22.1481" y="23.8795" width="1.7037" height="1.7037" fill="#FAE03A"/>
<rect x="23.8519" y="23.8795" width="1.7037" height="1.7037" fill="#FBE242"/>
<rect x="25.5555" y="23.8795" width="1.7037" height="1.7037" fill="#F9BA29"/>
<rect x="25.5555" y="23.8795" width="1.7037" height="1.7037" fill="#EE9C2A"/>
<rect x="13.6296" y="25.5832" width="1.7037" height="1.7037" fill="#F2A430"/>
<rect x="15.3333" y="25.5832" width="1.7037" height="1.7037" fill="#FDE05F"/>
<rect x="17.037" y="25.5832" width="1.7037" height="1.7037" fill="#FCEB70"/>
<rect x="17.037" y="25.5832" width="1.7037" height="1.7037" fill="#FCED56"/>
<rect x="18.7407" y="25.5832" width="1.7037" height="1.7037" fill="#FBE242"/>
<rect x="20.4445" y="25.5832" width="1.7037" height="1.7037" fill="#F9DB3B"/>
<rect x="20.4445" y="25.5832" width="1.7037" height="1.7037" fill="#F7DA3A"/>
<rect x="22.1481" y="25.5832" width="1.7037" height="1.7037" fill="#FAD92F"/>
<rect x="22.1481" y="25.5832" width="1.7037" height="1.7037" fill="#FBD939"/>
<rect x="23.8519" y="25.5832" width="1.7037" height="1.7037" fill="#F6AB1F"/>
<rect x="25.5555" y="25.5832" width="1.7037" height="1.7037" fill="#F0AA3E"/>
<rect x="15.3333" y="25.5832" width="1.7037" height="1.7037" fill="#F4A635"/>
<rect x="17.037" y="25.5832" width="1.7037" height="1.7037" fill="#FDE65A"/>
<rect x="17.037" y="25.5832" width="1.7037" height="1.7037" fill="#FCEC63"/>
<rect x="18.7407" y="25.5832" width="1.7037" height="1.7037" fill="#FCE647"/>
<rect x="20.4445" y="25.5832" width="1.7037" height="1.7037" fill="#F9DC3C"/>
<rect x="20.4445" y="25.5832" width="1.7037" height="1.7037" fill="#F7D935"/>
<rect x="22.1481" y="25.5832" width="1.7037" height="1.7037" fill="#FBD22C"/>
<rect x="22.1481" y="25.5832" width="1.7037" height="1.7037" fill="#F8B11F"/>
<rect x="23.8519" y="25.5832" width="1.7037" height="1.7037" fill="#EDB649"/>
<rect x="17.037" y="27.2869" width="1.7037" height="1.7037" fill="#F9A61E"/>
<rect x="17.037" y="27.2869" width="1.7037" height="1.7037" fill="#FDEA51"/>
<rect x="18.7407" y="27.2869" width="1.7037" height="1.7037" fill="#FCEA4E"/>
<rect x="20.4445" y="27.2869" width="1.7037" height="1.7037" fill="#FADE3E"/>
<rect x="20.4445" y="27.2869" width="1.7037" height="1.7037" fill="#FAD429"/>
<rect x="22.1481" y="27.2869" width="1.7037" height="1.7037" fill="#FAC025"/>
<rect x="22.1481" y="27.2869" width="1.7037" height="1.7037" fill="#EEA538"/>
<rect x="17.037" y="28.9906" width="1.7037" height="1.7037" fill="#F4AA48"/>
<rect x="17.037" y="28.9906" width="1.7037" height="1.7037" fill="#FCDB42"/>
<rect x="18.7407" y="28.9906" width="1.7037" height="1.7037" fill="#FBEA55"/>
<rect x="20.4445" y="28.9906" width="1.7037" height="1.7037" fill="#F9E041"/>
<rect x="20.4445" y="28.9906" width="1.7037" height="1.7037" fill="#F9CF28"/>
<rect x="22.1481" y="28.9906" width="1.7037" height="1.7037" fill="#F7A81B"/>
<rect x="17.037" y="28.9906" width="1.7037" height="1.7037" fill="#FFBF60"/>
<rect x="17.037" y="28.9906" width="1.7037" height="1.7037" fill="#FCBC2C"/>
<rect x="18.7407" y="28.9906" width="1.7037" height="1.7037" fill="#FDE950"/>
<rect x="20.4445" y="28.9906" width="1.7037" height="1.7037" fill="#FAE03C"/>
<rect x="20.4445" y="28.9906" width="1.7037" height="1.7037" fill="#F9C725"/>
<rect x="22.1481" y="28.9906" width="1.7037" height="1.7037" fill="#F19B21"/>
<rect x="17.037" y="30.6943" width="1.7037" height="1.7037" fill="#FBA319"/>
<rect x="18.7407" y="30.6943" width="1.7037" height="1.7037" fill="#FDE64B"/>
<rect x="20.4445" y="30.6943" width="1.7037" height="1.7037" fill="#FBDF3E"/>
<rect x="20.4445" y="30.6943" width="1.7037" height="1.7037" fill="#FBBE24"/>
<rect x="22.1481" y="30.6943" width="1.7037" height="1.7037" fill="#EF992D"/>
<rect x="17.037" y="32.398" width="1.7037" height="1.7037" fill="#F99D20"/>
<rect x="18.7407" y="32.398" width="1.7037" height="1.7037" fill="#FDE446"/>
<rect x="20.4445" y="32.398" width="1.7037" height="1.7037" fill="#FCE242"/>
<rect x="20.4445" y="32.398" width="1.7037" height="1.7037" fill="#FAB422"/>
<rect x="22.1481" y="32.398" width="1.7037" height="1.7037" fill="#E8973A"/>
<rect x="17.037" y="32.398" width="1.7037" height="1.7037" fill="#FA9C26"/>
<rect x="18.7407" y="32.398" width="1.7037" height="1.7037" fill="#FDDF46"/>
<rect x="20.4445" y="32.398" width="1.7037" height="1.7037" fill="#FCE143"/>
<rect x="20.4445" y="32.398" width="1.7037" height="1.7037" fill="#F9A81D"/>
<rect x="17.037" y="34.1017" width="1.7037" height="1.7037" fill="#F79E35"/>
<rect x="18.7407" y="34.1017" width="1.7037" height="1.7037" fill="#FDDA49"/>
<rect x="20.4445" y="34.1017" width="1.7037" height="1.7037" fill="#FCDE49"/>
<rect x="20.4445" y="34.1017" width="1.7037" height="1.7037" fill="#F79C1B"/>
<rect x="17.037" y="34.1017" width="1.7037" height="1.7037" fill="#F2AE51"/>
<rect x="18.7407" y="34.1017" width="1.7037" height="1.7037" fill="#FDD347"/>
<rect x="20.4445" y="34.1017" width="1.7037" height="1.7037" fill="#FDE250"/>
<rect x="20.4445" y="34.1017" width="1.7037" height="1.7037" fill="#F5931B"/>
<rect x="18.7407" y="35.8055" width="1.7037" height="1.7037" fill="#FCC33C"/>
<rect x="20.4445" y="35.8055" width="1.7037" height="1.7037" fill="#FDDC49"/>
<rect x="20.4445" y="35.8055" width="1.7037" height="1.7037" fill="#F48F1D"/>
<rect x="18.7407" y="37.5091" width="1.7037" height="1.7037" fill="#FBB332"/>
<rect x="20.4445" y="37.5091" width="1.7037" height="1.7037" fill="#FDD245"/>
<rect x="20.4445" y="37.5091" width="1.7037" height="1.7037" fill="#F19233"/>
<rect x="18.7407" y="37.5091" width="1.7037" height="1.7037" fill="#F9A62C"/>
<rect x="20.4445" y="37.5091" width="1.7037" height="1.7037" fill="#FDC942"/>
<rect x="20.4445" y="37.5091" width="1.7037" height="1.7037" fill="#E3AA71"/>
<rect x="18.7407" y="39.2128" width="1.7037" height="1.7037" fill="#F89C2F"/>
<rect x="20.4445" y="39.2128" width="1.7037" height="1.7037" fill="#FCBC41"/>
<rect x="18.7407" y="40.9165" width="1.7037" height="1.7037" fill="#F6A452"/>
<rect x="20.4445" y="40.9165" width="1.7037" height="1.7037" fill="#FBAB42"/>
<rect x="18.7407" y="40.9165" width="1.7037" height="1.7037" fill="#FFBF95"/>
<rect x="20.4445" y="40.9165" width="1.7037" height="1.7037" fill="#FA9C3F"/>
<rect x="20.4445" y="42.6203" width="1.7037" height="1.7037" fill="#F8923F"/>
<rect x="20.4445" y="44.324" width="1.7037" height="1.7037" fill="#F6994F"/>
<rect x="20.4445" y="44.324" width="1.7037" height="1.7037" fill="#F5B782"/>
</svg>
