<?xml version="1.0" encoding="UTF-8"?>
<svg version="1.1" xmlns="http://www.w3.org/2000/svg" width="500" height="500">
<path d="M0 0 C0.96164063 -0.00257812 1.92328125 -0.00515625 2.9140625 -0.0078125 C5.375 0.125 5.375 0.125 7.375 1.125 C9.60022523 7.44932432 9.60022523 7.44932432 8.375 11.125 C9.035 11.125 9.695 11.125 10.375 11.125 C13.04970458 17.73009107 15.53273766 24.12786378 16.921875 31.125 C17.83378165 35.14996728 19.1481764 38.80380535 22 41.875 C24.77960138 43.33794809 27.57099745 44.18132897 30.5625 45.12109375 C36.05346851 47.08106445 41.2670984 49.7013647 46.51025391 52.23730469 C48.24746773 53.06428943 50.00403788 53.85026946 51.76171875 54.6328125 C66.10751517 61.22071901 72.013025 73.87604791 77.375 88.125 C79.52963918 94.81572165 79.52963918 94.81572165 78.375 97.125 C79.365 97.455 80.355 97.785 81.375 98.125 C82.65625 100.75 82.65625 100.75 83.875 104.125 C84.30683594 105.30320312 84.73867187 106.48140625 85.18359375 107.6953125 C86.36174507 111.08684318 87.49269525 114.48459623 88.50390625 117.9296875 C88.79136719 118.65414062 89.07882813 119.37859375 89.375 120.125 C89.83737061 121.30666748 90.29974121 122.48833496 90.77612305 123.70581055 C92.16593653 126.09005268 92.84700767 126.96314556 95.51478577 127.78094482 C98.30579138 128.03455815 101.02578561 128.06787748 103.828125 128.02734375 C104.84348328 128.03963516 105.85884155 128.05192657 106.90496826 128.06459045 C110.1457104 128.0963658 113.38418588 128.0800296 116.625 128.0625 C118.82293785 128.07560608 121.02085943 128.09184444 123.21875 128.11132812 C128.60450546 128.15222203 133.98918964 128.15362962 139.375 128.125 C139.684375 127.01640625 139.99375 125.9078125 140.3125 124.765625 C141.52805766 120.60055243 142.98089074 117.71616389 145.375 114.125 C145.89527291 112.74396144 146.37131586 111.34579966 146.8125 109.9375 C153.37792512 89.62061232 153.37792512 89.62061232 158.375 82.125 C158.66375 81.0525 158.9525 79.98 159.25 78.875 C160.48352242 74.76325861 162.14383522 71.76923581 164.375 68.125 C165.035 68.125 165.695 68.125 166.375 68.125 C166.560625 67.42375 166.74625 66.7225 166.9375 66 C169.71923786 60.43652428 174.5691777 57.10747591 180.375 55.125 C182.25538378 54.16831352 184.1357175 53.2115283 186.015625 52.25390625 C188.69902811 50.96996006 191.42833008 49.86153089 194.1875 48.75 C206.91742959 43.98158082 206.91742959 43.98158082 215.375 34.125 C215.62932208 32.15400392 215.88027149 30.18081174 216.03125 28.19921875 C216.53921526 25.13411019 217.99788205 22.75612765 219.46875 20.05078125 C220.81238996 17.19554634 220.94556402 14.23841088 221.375 11.125 C224.53863636 1.96136364 224.53863636 1.96136364 226.375 0.125 C233.30797935 -0.44363553 239.32096504 -0.48165912 245.375 3.125 C247.95623629 5.53970491 248.33559072 6.64223634 248.625 10.1875 C248.375 13.125 248.375 13.125 247.375 16.125 C247.65269908 18.4656065 247.98039977 20.80124308 248.375 23.125 C250.95747351 22.50520636 253.45925515 21.78850702 256 21 C259.375 20.125 259.375 20.125 261.375 21.125 C261.375 20.465 261.375 19.805 261.375 19.125 C269.04166667 19.125 276.70833333 19.125 284.375 19.125 C284.375 19.785 284.375 20.445 284.375 21.125 C285.035 20.898125 285.695 20.67125 286.375 20.4375 C289.84673291 20.07586115 291.94327947 21.02796233 295.109375 22.36328125 C298.48368377 23.49774713 301.8333969 23.63817114 305.37109375 23.81640625 C306.03238281 23.91824219 306.69367188 24.02007812 307.375 24.125 C307.705 24.785 308.035 25.445 308.375 26.125 C309.179375 26.24875 309.98375 26.3725 310.8125 26.5 C315.65250224 27.3491232 319.86288465 29.21945976 324.375 31.125 C325.32890625 31.52074219 326.2828125 31.91648437 327.265625 32.32421875 C329.2726916 33.15699377 331.27787751 33.99431452 333.28125 34.8359375 C335.37930511 35.71012713 337.48377517 36.56904831 339.59375 37.4140625 C353.49828645 43.02406112 353.49828645 43.02406112 357.375 48.125 C359.34767 54.58101091 358.5917517 60.84420351 356.375 67.125 C354.375 69.125 354.375 69.125 352.375 70.125 C352.045 71.115 351.715 72.105 351.375 73.125 C349 74.875 349 74.875 346.375 76.125 C345.385 75.795 344.395 75.465 343.375 75.125 C342.776875 75.33125 342.17875 75.5375 341.5625 75.75 C338.23551315 76.3203406 336.2222702 74.74276716 333.375 73.125 C333.375 72.465 333.375 71.805 333.375 71.125 C332.818125 71.310625 332.26125 71.49625 331.6875 71.6875 C328.97337996 72.20098217 327.04814517 71.72346534 324.375 71.125 C323.99988281 71.96804687 323.62476563 72.81109375 323.23828125 73.6796875 C322.72652344 74.77539062 322.21476562 75.87109375 321.6875 77 C321.18863281 78.09054688 320.68976563 79.18109375 320.17578125 80.3046875 C317.59726862 84.34305218 315.05255316 84.75221041 310.5625 85.75 C309.4796875 85.935625 309.4796875 85.935625 308.375 86.125 C308.375 85.465 308.375 84.805 308.375 84.125 C307.715 84.455 307.055 84.785 306.375 85.125 C297.41310585 86.14671432 290.28468961 84.37613611 282.375 80.125 C281.715 79.465 281.055 78.805 280.375 78.125 C279.05538004 77.74095305 277.7181286 77.41636652 276.375 77.125 C263.95349769 73.51517444 263.95349769 73.51517444 260.375 67.125 C260.14515099 62.06832175 262.8852797 57.84709427 265.21875 53.4921875 C266.28293664 51.31348106 267.08577532 49.53176254 267.375 47.125 C264.58200726 44.33200726 261.2079797 43.43646376 257.5625 42.125 C256.1391602 41.60461151 254.7159794 41.0837879 253.29296875 40.5625 C252.61403564 40.31983398 251.93510254 40.07716797 251.2355957 39.82714844 C249.375 39.125 249.375 39.125 246.6796875 37.828125 C243.59928125 36.88834004 242.21243968 37.56621733 239.3125 38.875 C238.05759766 39.42414063 238.05759766 39.42414063 236.77734375 39.984375 C234.62858993 41.00459632 232.50152815 42.05955263 230.375 43.125 C227.04610402 44.60450933 223.79739136 45.99569652 220.3125 47.0625 C217.24309037 48.04060558 217.24309037 48.04060558 214.375 50.125 C211.38093952 52.12104032 208.85557849 53.25485538 205.375 54.125 C204.715 53.795 204.055 53.465 203.375 53.125 C203.045 54.115 202.715 55.105 202.375 56.125 C200.59765625 57.109375 200.59765625 57.109375 198.4375 57.875 C197.37208984 58.26945312 197.37208984 58.26945312 196.28515625 58.671875 C194.375 59.125 194.375 59.125 192.375 58.125 C192.045 59.115 191.715 60.105 191.375 61.125 C188.74393365 62.64517167 186.37920308 63.93671192 183.375 64.5 C176.7024081 66.58518497 172.51946522 73.29801419 169.375 79.125 C167.65681928 82.94764308 166.15119269 86.8495437 164.671875 90.76953125 C163.6816808 93.33150961 162.6086225 95.68367145 161.375 98.125 C160.80525637 99.65651268 160.26361998 101.19876391 159.75 102.75 C159.35941406 103.91402344 159.35941406 103.91402344 158.9609375 105.1015625 C158.28228396 107.09408499 158.28228396 107.09408499 158.375 109.125 C161.98151131 111.80079871 165.84363763 113.02417451 170.09375 114.28125 C172.75802948 115.26666844 174.95989536 116.63202622 177.375 118.125 C184.19868109 121.78462784 190.94514493 124.93232515 198.375 127.125 C199.365 127.455 200.355 127.785 201.375 128.125 C203.10325319 128.2255123 204.83267489 128.30668533 206.5625 128.375 C217.84970428 129.42257059 225.79037475 138.30648763 233.375 146.125 C233.705 147.115 234.035 148.105 234.375 149.125 C235.179375 149.434375 235.98375 149.74375 236.8125 150.0625 C239.87657145 151.33296865 240.06237452 152.21847216 241.375 155.125 C242.365 155.455 243.355 155.785 244.375 156.125 C244.375 156.785 244.375 157.445 244.375 158.125 C244.9525 158.37507812 245.53 158.62515625 246.125 158.8828125 C248.67716005 160.29181752 250.35223062 161.90611763 252.375 164 C253.035 164.67804688 253.695 165.35609375 254.375 166.0546875 C255.035 166.73789063 255.695 167.42109375 256.375 168.125 C259.38848662 171.20843215 262.53559846 173.95486214 265.88671875 176.66015625 C267.375 178.125 267.375 178.125 268.375 181.125 C269.70296291 181.47912344 271.03716607 181.81021554 272.375 182.125 C272.78621094 182.58648437 273.19742187 183.04796875 273.62109375 183.5234375 C276.0358784 185.72847471 278.44620668 186.28176157 281.5625 187.25 C299.9314494 193.45517083 316.51931594 205.10389735 326.375 222.125 C327.08028245 224.11171113 327.75116839 226.11122778 328.375 228.125 C328.890625 229.15625 329.40625 230.1875 329.9375 231.25 C331.375 234.125 331.375 234.125 331.83984375 236.0546875 C332.41889363 238.29480747 333.29105574 240.08463434 334.375 242.125 C335.79580243 244.79945164 336.64322829 247.19791315 337.375 250.125 C338.00770867 251.47477849 338.67562468 252.80852881 339.375 254.125 C340.79104338 256.79049343 341.67905324 259.19340127 342.375 262.125 C342.725625 262.7025 343.07625 263.28 343.4375 263.875 C345.71826871 269.3488449 344.47301959 274.81824458 342.375 280.125 C340.93615537 284.44153388 339.61429235 288.79490206 338.27929688 293.14453125 C338.06466797 293.83675781 337.85003906 294.52898437 337.62890625 295.2421875 C337.43627197 295.86722168 337.2436377 296.49225586 337.04516602 297.13623047 C336.375 299.125 336.375 299.125 335.3530426 301.30073547 C334.15677183 304.755171 334.09456938 307.64598021 334.05615234 311.30200195 C334.04610672 312.00498917 334.0360611 312.70797638 334.02571106 313.43226624 C333.99496192 315.74259669 333.97786728 318.05281171 333.9609375 320.36328125 C333.94221916 321.97040291 333.92264525 323.57751481 333.9022522 325.18461609 C333.85099519 329.40461465 333.81133516 333.62464505 333.77410889 337.8447876 C333.73402883 342.15506831 333.68295477 346.4652173 333.6328125 350.77539062 C333.5361294 359.22517033 333.45170038 367.67501539 333.375 376.125 C334.035 376.125 334.695 376.125 335.375 376.125 C334.25048273 379.0969385 333.15206209 381.45940687 331.375 384.125 C329.27426147 384.48576355 329.27426147 384.48576355 326.64990234 384.46557617 C325.66903656 384.46534958 324.68817078 384.46512299 323.67758179 384.46488953 C322.61608917 384.44940567 321.55459656 384.43392181 320.4609375 384.41796875 C319.37616119 384.41372391 318.29138489 384.40947906 317.17373657 384.40510559 C313.69890833 384.388273 310.22465382 384.35061189 306.75 384.3125 C304.39844586 384.29745911 302.04688265 384.28376967 299.6953125 384.27148438 C293.92167827 384.23835454 288.14838011 384.18810982 282.375 384.125 C281.941875 382.9184375 281.941875 382.9184375 281.5 381.6875 C280.64237432 378.9923532 280.64237432 378.9923532 278.375 378.125 C278.705 366.575 279.035 355.025 279.375 343.125 C171.795 343.455 64.215 343.785 -46.625 344.125 C-46.625 356.005 -46.625 367.885 -46.625 380.125 C-47.285 380.125 -47.945 380.125 -48.625 380.125 C-48.955 381.445 -49.285 382.765 -49.625 384.125 C-56.54829438 384.22627533 -63.47139836 384.29641266 -70.39526367 384.34472656 C-72.75145608 384.36486357 -75.10759839 384.39217516 -77.46362305 384.42675781 C-80.84696806 384.47518287 -84.2296534 384.49794796 -87.61328125 384.515625 C-89.19777824 384.54659271 -89.19777824 384.54659271 -90.81428528 384.57818604 C-91.79507553 384.57848816 -92.77586578 384.57879028 -93.78637695 384.57910156 C-94.65019485 384.58798401 -95.51401276 384.59686646 -96.40400696 384.60601807 C-98.625 384.125 -98.625 384.125 -100.41009521 382.55111694 C-102.08906759 379.19827532 -101.95558663 376.59775137 -101.90209961 372.85302734 C-101.89611252 372.1272348 -101.89012543 371.40144226 -101.88395691 370.65365601 C-101.86921352 369.07997576 -101.84760863 367.50634813 -101.81992912 365.93284225 C-101.77688893 363.43453729 -101.75364608 360.93674464 -101.73573303 358.43814087 C-101.68078569 351.33518963 -101.58658801 344.23283235 -101.48803711 337.13037109 C-101.42905927 332.78158007 -101.39010338 328.43294662 -101.36230659 324.08385086 C-101.34029681 321.63631922 -101.29481076 319.18994604 -101.24876404 316.74276733 C-101.15741402 308.3805404 -101.86469706 301.72799751 -105.625 294.125 C-106.52010461 290.33801897 -106.85279747 288.8083924 -105.625 285.125 C-106.285 285.125 -106.945 285.125 -107.625 285.125 C-110.1187078 278.96865888 -112.18178346 273.80640152 -111.625 267.125 C-111.625 266.135 -111.625 265.145 -111.625 264.125 C-111.03044274 262.41875893 -110.37843002 260.73204265 -109.6875 259.0625 C-109.32785156 258.18464844 -108.96820313 257.30679687 -108.59765625 256.40234375 C-107.73232607 254.37628956 -106.79251005 252.43964726 -105.7578125 250.49609375 C-103.52908883 246.22005416 -101.86231765 241.99855479 -100.3984375 237.41015625 C-95.90600311 224.13705465 -88.32541306 210.28743102 -76.625 202.125 C-74.97880887 201.40926473 -73.31771945 200.7224304 -71.625 200.125 C-71.295 199.465 -70.965 198.805 -70.625 198.125 C-62.85475379 191.57748289 -53.13534848 188.56861025 -43.7734375 185.0546875 C-41.54936868 184.2487743 -41.54936868 184.2487743 -40 182.5 C-39.54625 182.04625 -39.0925 181.5925 -38.625 181.125 C-37.635 181.125 -36.645 181.125 -35.625 181.125 C-35.37492187 180.5475 -35.12484375 179.97 -34.8671875 179.375 C-33.45818248 176.82283995 -31.84388237 175.14776938 -29.75 173.125 C-29.07195312 172.465 -28.39390625 171.805 -27.6953125 171.125 C-27.01210937 170.465 -26.32890625 169.805 -25.625 169.125 C-24.92117187 168.3825 -24.21734375 167.64 -23.4921875 166.875 C-21.625 165.125 -21.625 165.125 -19.625 165.125 C-19.625 164.465 -19.625 163.805 -19.625 163.125 C-14.14880952 158.125 -14.14880952 158.125 -11.625 158.125 C-11.398125 157.568125 -11.17125 157.01125 -10.9375 156.4375 C-9.23882022 153.44458801 -7.20427313 151.38972763 -4.625 149.125 C-3.635 149.125 -2.645 149.125 -1.625 149.125 C-1.36332031 148.52558594 -1.10164063 147.92617187 -0.83203125 147.30859375 C0.44720188 144.99438236 1.63750442 143.82840555 3.6875 142.1875 C7.31546073 139.20065499 10.77315524 136.09090038 13.75 132.4375 C18.16419048 128.8721923 24.88759729 128.58228356 30.375 128.125 C31.365 128.455 32.355 128.785 33.375 129.125 C33.375 128.465 33.375 127.805 33.375 127.125 C37.060045 125.49507625 40.46698543 124.090687 44.375 123.125 C46.4553857 122.36742559 48.510726 121.55827031 50.5703125 120.74609375 C52.375 120.125 52.375 120.125 54.375 120.125 C54.560625 119.50625 54.74625 118.8875 54.9375 118.25 C57.11534913 115.03057084 59.68094962 114.85061704 63.375 114.125 C64.035 114.455 64.695 114.785 65.375 115.125 C65.705 114.135 66.035 113.145 66.375 112.125 C68.44140625 110.95703125 68.44140625 110.95703125 70.9375 109.9375 C71.76378906 109.59332031 72.59007812 109.24914062 73.44140625 108.89453125 C74.07949219 108.64058594 74.71757812 108.38664062 75.375 108.125 C74.570625 106.64 74.570625 106.64 73.75 105.125 C71.65622644 100.97431509 70.07608416 96.67806386 68.5 92.3125 C64.26934294 80.73287093 59.78453531 69.4573667 48.125 64 C45.88032454 63.02926067 43.63049168 62.07033595 41.375 61.125 C39.64407082 60.35813264 37.91462886 59.58788848 36.1875 58.8125 C35.49269531 58.50699219 34.79789063 58.20148438 34.08203125 57.88671875 C32.83265543 57.32921696 31.59868237 56.73684119 30.375 56.125 C28.43903841 55.22584689 26.50122726 54.33067423 24.5625 53.4375 C23.40492188 52.90382812 22.24734375 52.37015625 21.0546875 51.8203125 C19.82814191 51.25517163 18.60157921 50.69006789 17.375 50.125 C14.9789991 49.02119589 12.58319279 47.91697307 10.1875 46.8125 C9.12144531 46.32136719 8.05539063 45.83023438 6.95703125 45.32421875 C5.42050896 44.61058434 3.89030191 43.88265095 2.375 43.125 C0.8768499 42.45418652 -0.62339601 41.78804592 -2.125 41.125 C-4.3136977 40.15856206 -6.48502343 39.19498829 -8.625 38.125 C-12.18701464 36.80545282 -14.01774525 37.41342032 -17.4375 38.9375 C-20.45211754 40.23453809 -23.18808003 41.27515467 -26.375 42.125 C-30.11290402 43.27512431 -32.48757841 44.82932567 -35.625 47.125 C-35.13 48.053125 -34.635 48.98125 -34.125 49.9375 C-32.625 53.125 -32.625 53.125 -32.625 56.125 C-31.965 56.455 -31.305 56.785 -30.625 57.125 C-29.05624842 61.41842536 -27.97178254 64.75578243 -29.625 69.125 C-33.16622674 74.20589053 -39.93749725 76.22000848 -45.7578125 77.6484375 C-47.8568173 78.11385249 -47.8568173 78.11385249 -50.5 79.5625 C-53.5075961 81.06629805 -56.42737093 82.10448009 -59.625 83.125 C-60.38425781 83.47304687 -61.14351563 83.82109375 -61.92578125 84.1796875 C-65.04631685 85.27255236 -67.45517548 85.29072132 -70.75 85.1875 C-74.1469807 85.09008035 -76.384093 85.04469767 -79.625 86.125 C-79.625 85.465 -79.625 84.805 -79.625 84.125 C-81.605 84.62 -81.605 84.62 -83.625 85.125 C-88.02939414 80.4825305 -89.94410452 76.27461761 -91.625 70.125 C-97.43282636 71.38967106 -97.43282636 71.38967106 -102.625 74.125 C-108.40946093 76.29417285 -111.87256335 76.54102339 -117.625 74.125 C-121.87344934 70.66695984 -123.9982719 67.34765337 -125.625 62.125 C-126.14659081 56.91724174 -126.34763782 51.7534843 -123.625 47.125 C-120.25343862 43.06076635 -116.38269245 41.41556235 -111.625 39.4375 C-110.55765625 38.97633789 -110.55765625 38.97633789 -109.46875 38.50585938 C-106.19940182 37.11211673 -103.07795864 35.9753089 -99.625 35.125 C-98.27522151 34.49229133 -96.94147119 33.82437532 -95.625 33.125 C-93.60685991 32.05286308 -91.84614662 31.17985473 -89.625 30.62890625 C-86.69792433 29.89142039 -84.25826948 28.4100561 -81.625 26.96484375 C-79.625 26.125 -79.625 26.125 -75.625 26.125 C-74.965 25.465 -74.305 24.805 -73.625 24.125 C-71.01834563 23.30626172 -68.45992904 22.59051678 -65.8125 21.9375 C-64.74418945 21.65229492 -64.74418945 21.65229492 -63.65429688 21.36132812 C-59.65152983 20.35785924 -56.60208719 19.89827566 -52.625 21.125 C-52.625 20.465 -52.625 19.805 -52.625 19.125 C-52.00625 19.310625 -51.3875 19.49625 -50.75 19.6875 C-48.58339822 20.36186176 -48.58339822 20.36186176 -46.625 19.125 C-43.71780034 18.99936223 -40.84495574 18.93981301 -37.9375 18.9375 C-37.14666016 18.92525391 -36.35582031 18.91300781 -35.54101562 18.90039062 C-27.85793198 18.88135739 -21.5653061 21.0089442 -14.625 24.125 C-14.79 23.3825 -14.955 22.64 -15.125 21.875 C-16.95185035 8.17362237 -16.95185035 8.17362237 -14.42578125 4.2734375 C-9.95176104 0.41924377 -5.67268297 -0.01529025 0 0 Z M13.375 24.125 C14.375 26.125 14.375 26.125 14.375 26.125 Z M156.375 105.125 C157.375 107.125 157.375 107.125 157.375 107.125 Z M71 120.0625 C68.16598663 121.15160431 65.57667807 122.08856237 62.5859375 122.62890625 C61.49152344 122.87447266 61.49152344 122.87447266 60.375 123.125 C60.045 123.785 59.715 124.445 59.375 125.125 C57.37616131 125.46522786 55.37609278 125.79829097 53.375 126.125 C52.715 126.785 52.055 127.445 51.375 128.125 C61.935 128.125 72.495 128.125 83.375 128.125 C83.375 123.38352179 82.27822818 121.77477257 79.375 118.125 C76.06843936 118.125 74.07198656 118.87999558 71 120.0625 Z M80.375 118.125 C81.375 120.125 81.375 120.125 81.375 120.125 Z M153.375 118.125 C150.08198479 121.41801521 150.20627969 123.13732183 149.375 128.125 C159.935 128.125 170.495 128.125 181.375 128.125 C181.045 127.465 180.715 126.805 180.375 126.125 C178.19554635 125.46887507 178.19554635 125.46887507 175.625 125.0625 C174.33335937 124.82853516 174.33335937 124.82853516 173.015625 124.58984375 C171.21649024 124.27313216 169.41412768 123.97435476 167.609375 123.69140625 C166.87203125 123.50449219 166.1346875 123.31757813 165.375 123.125 C165.045 122.465 164.715 121.805 164.375 121.125 C162.59693563 120.21757208 162.59693563 120.21757208 160.5 119.5 C159.80132812 119.23960937 159.10265625 118.97921875 158.3828125 118.7109375 C156.24361468 117.98492828 156.24361468 117.98492828 153.375 118.125 Z " fill="#9AA1A9" transform="translate(133.625,57.875)"/>
<path d="M0 0 C150.48 0 300.96 0 456 0 C454 8 454 8 453 11 C451.44755261 16.00834777 451.44755261 16.00834777 449.90429688 21.01953125 C449.68966797 21.71175781 449.47503906 22.40398437 449.25390625 23.1171875 C448.96495483 24.05473877 448.96495483 24.05473877 448.67016602 25.01123047 C448 27 448 27 446.9780426 29.17573547 C445.78177183 32.630171 445.71956938 35.52098021 445.68115234 39.17700195 C445.67110672 39.87998917 445.6610611 40.58297638 445.65071106 41.30726624 C445.61996192 43.61759669 445.60286728 45.92781171 445.5859375 48.23828125 C445.56721916 49.84540291 445.54764525 51.45251481 445.5272522 53.05961609 C445.47599519 57.27961465 445.43633516 61.49964505 445.39910889 65.7197876 C445.35902883 70.03006831 445.30795477 74.3402173 445.2578125 78.65039062 C445.1611294 87.10017033 445.07670038 95.55001539 445 104 C445.66 104 446.32 104 447 104 C445.87548273 106.9719385 444.77706209 109.33440687 443 112 C440.89926147 112.36076355 440.89926147 112.36076355 438.27490234 112.34057617 C437.29403656 112.34034958 436.31317078 112.34012299 435.30258179 112.33988953 C434.24108917 112.32440567 433.17959656 112.30892181 432.0859375 112.29296875 C431.00116119 112.28872391 429.91638489 112.28447906 428.79873657 112.28010559 C425.32390833 112.263273 421.84965382 112.22561189 418.375 112.1875 C416.02344586 112.17245911 413.67188265 112.15876967 411.3203125 112.14648438 C405.54667827 112.11335454 399.77338011 112.06310982 394 112 C393.566875 110.7934375 393.566875 110.7934375 393.125 109.5625 C392.26737432 106.8673532 392.26737432 106.8673532 390 106 C390.33 94.45 390.66 82.9 391 71 C283.42 71.33 175.84 71.66 65 72 C65 83.88 65 95.76 65 108 C64.34 108 63.68 108 63 108 C62.505 109.98 62.505 109.98 62 112 C55.07670562 112.10127533 48.15360164 112.17141266 41.22973633 112.21972656 C38.87354392 112.23986357 36.51740161 112.26717516 34.16137695 112.30175781 C30.77803194 112.35018287 27.3953466 112.37294796 24.01171875 112.390625 C22.42722176 112.42159271 22.42722176 112.42159271 20.81071472 112.45318604 C19.82992447 112.45348816 18.84913422 112.45379028 17.83862305 112.45410156 C16.97480515 112.46298401 16.11098724 112.47186646 15.22099304 112.48101807 C13 112 13 112 11.21490479 110.42611694 C9.53593241 107.07327532 9.66941337 104.47275137 9.72290039 100.72802734 C9.72888748 100.0022348 9.73487457 99.27644226 9.74104309 98.52865601 C9.75578648 96.95497576 9.77739137 95.38134813 9.80507088 93.80784225 C9.84811107 91.30953729 9.87135392 88.81174464 9.88926697 86.31314087 C9.94421431 79.21018963 10.03841199 72.10783235 10.13696289 65.00537109 C10.19594073 60.65658007 10.23489662 56.30794662 10.26269341 51.95885086 C10.28470319 49.51131922 10.33018924 47.06494604 10.37623596 44.61776733 C10.46758598 36.2555404 9.76030294 29.60299751 6 22 C5.10489539 18.21301897 4.77220253 16.6833924 6 13 C5.34 13 4.68 13 4 13 C3.32942113 11.2097939 2.6636531 9.41778511 2 7.625 C1.62875 6.62726563 1.2575 5.62953125 0.875 4.6015625 C0 2 0 2 0 0 Z " fill="#1C1D1D" transform="translate(22,330)"/>
<path d="M0 0 C150.48 0 300.96 0 456 0 C454 8 454 8 453 11 C451.44755261 16.00834777 451.44755261 16.00834777 449.90429688 21.01953125 C449.68966797 21.71175781 449.47503906 22.40398437 449.25390625 23.1171875 C448.96495483 24.05473877 448.96495483 24.05473877 448.67016602 25.01123047 C447.87184513 27.38030951 446.93489902 29.68186256 446 32 C390.76203134 32.0228687 335.52406315 32.04049941 280.28609068 32.05106533 C273.77072386 32.0523161 267.25535704 32.05361041 260.73999023 32.05493164 C259.44285035 32.05519395 258.14571047 32.05545626 256.80926333 32.05572652 C235.78214454 32.06008262 214.75502848 32.06796984 193.72791132 32.0771528 C172.16613039 32.08649099 150.60435089 32.09205596 129.04256803 32.09408849 C115.72848469 32.09546337 102.41440904 32.09981209 89.10032807 32.10791647 C79.9811561 32.11318597 70.86198813 32.11480383 61.74281474 32.11350138 C56.47471962 32.11285832 51.20663798 32.11387191 45.93854523 32.11920547 C41.12173024 32.12404678 36.3049379 32.12433378 31.4881219 32.12089889 C29.739762 32.12047393 27.99140073 32.12176351 26.24304356 32.12488318 C23.87769495 32.1288605 21.5124295 32.12675495 19.14708233 32.12304783 C17.8298325 32.12342755 16.51258268 32.12380727 15.15541619 32.1241985 C12 32 12 32 9 31 C7.796875 28.234375 7.796875 28.234375 6.75 24.75 C6.39421875 23.61046875 6.0384375 22.4709375 5.671875 21.296875 C5.00986041 18.04838478 5.07806549 16.14403308 6 13 C5.34 13 4.68 13 4 13 C3.32942113 11.2097939 2.6636531 9.41778511 2 7.625 C1.62875 6.62726563 1.2575 5.62953125 0.875 4.6015625 C0 2 0 2 0 0 Z " fill="#1B1C1C" transform="translate(22,330)"/>
<path d="M0 0 C0.76351318 -0.01117892 1.52702636 -0.02235785 2.3136763 -0.03387552 C4.8684065 -0.06618281 7.42235961 -0.06996593 9.97727966 -0.07362366 C11.81075513 -0.09050689 13.6442165 -0.10898449 15.47766113 -0.12893677 C20.45736042 -0.17710191 25.436829 -0.19881387 30.41673017 -0.21278453 C33.53105335 -0.22229729 36.6453152 -0.23674908 39.75961113 -0.25279427 C50.63394476 -0.30778411 61.50809155 -0.3387633 72.3825531 -0.35096741 C82.50262946 -0.36306013 92.62128509 -0.43157329 102.74089962 -0.52569383 C111.44009589 -0.60376816 120.1388206 -0.63925033 128.83836406 -0.64261633 C134.02937278 -0.64549868 139.21886067 -0.66586291 144.40950203 -0.73025322 C149.29815458 -0.78963797 154.18410247 -0.7957975 159.07297325 -0.76231956 C160.8595559 -0.75897878 162.64629239 -0.77418296 164.43251801 -0.81005478 C179.28881011 -1.09041393 179.28881011 -1.09041393 185.71062177 4.42010349 C188.06495376 6.69036044 190.20046584 9.08196038 192.3422699 11.55503845 C193.52201533 12.67859935 194.71669332 13.78706121 195.9360199 14.86753845 C196.8950824 15.75441345 197.8541449 16.64128845 198.8422699 17.55503845 C202.95689574 21.35819367 207.08190126 25.14944675 211.2172699 28.93003845 C214.56790421 31.9955124 217.90357604 35.07467112 221.2172699 38.18003845 C221.88129822 38.80217224 222.54532654 39.42430603 223.22947693 40.06529236 C224.51834526 41.27437813 225.80586527 42.48490343 227.09178162 43.6971283 C229.92624411 46.35678488 232.77724555 48.94648385 235.7875824 51.40660095 C236.63062927 52.11558533 237.47367615 52.8245697 238.3422699 53.55503845 C238.3422699 53.88503845 238.3422699 54.21503845 238.3422699 54.55503845 C138.0222699 54.55503845 37.7022699 54.55503845 -65.6577301 54.55503845 C-62.97743785 51.20467314 -61.03695588 48.83876243 -57.8921051 46.19566345 C-53.78305256 42.67959166 -49.83697157 39.019807 -45.9077301 35.30503845 C-40.18029875 29.9127546 -34.42151388 24.56078649 -28.6108551 19.25816345 C-26.46594169 17.29951118 -24.33269044 15.32883623 -22.2046051 13.35191345 C-21.62347961 12.8126825 -21.04235413 12.27345154 -20.44361877 11.71788025 C-19.33052563 10.68425997 -18.21862242 9.64935609 -17.10816956 8.61289978 C-15.63642016 7.24752505 -14.14744892 5.90078444 -12.6577301 4.55503845 C-11.93064881 3.85226493 -11.20356752 3.14949141 -10.45445347 2.42542171 C-6.93791436 0.07364249 -4.09059201 -0.02394075 0 0 Z " fill="#DCDCDC" transform="translate(163.65773010253906,192.44496154785156)"/>
<path d="M0 0 C99.66 0 199.32 0 302 0 C304.08761298 6.26283893 306.00879895 12.39020809 307.6875 18.75 C307.91244141 19.57371094 308.13738281 20.39742188 308.36914062 21.24609375 C308.6872168 22.44685547 308.6872168 22.44685547 309.01171875 23.671875 C309.29728638 24.74066895 309.29728638 24.74066895 309.58862305 25.83105469 C310 28 310 28 310 33 C208.03 33 106.06 33 1 33 C1 23 1 23 1.03515625 18.53515625 C1.04448388 16.71093858 1.05358895 14.88671976 1.0625 13.0625 C1.07087891 12.14275391 1.07925781 11.22300781 1.08789062 10.27539062 C1.09111328 9.39173828 1.09433594 8.50808594 1.09765625 7.59765625 C1.10289307 6.78820557 1.10812988 5.97875488 1.11352539 5.14477539 C1.08533967 2.81328398 1.08533967 2.81328398 0 0 Z " fill="#2E2F2F" transform="translate(149,291)"/>
<path d="M0 0 C1.07456971 -0.0055344 2.14913941 -0.01106879 3.25627184 -0.0167709 C6.86928224 -0.0304212 10.4816071 -0.0153838 14.09460449 -0.00050354 C16.67980748 -0.0042851 19.26500844 -0.0097838 21.85020447 -0.01687622 C28.15034956 -0.03081967 34.45029441 -0.02324447 40.75042999 -0.00820064 C48.08485445 0.00864724 55.41922887 0.00545075 62.7536667 0.00170528 C75.83887007 -0.00417532 88.92397725 0.01000608 102.00915527 0.03465271 C114.71068935 0.05857409 127.41209491 0.06565724 140.11364746 0.05516052 C153.93980554 0.04375491 167.76590416 0.04181682 181.59206152 0.05625862 C183.06596724 0.05778448 184.53987296 0.05930484 186.01377869 0.06081963 C186.73899689 0.06157744 187.46421509 0.06233525 188.2114096 0.06311603 C193.32568687 0.06786163 198.43993761 0.06600547 203.55421448 0.06175423 C210.43573593 0.05631721 217.31707585 0.06705479 224.19856453 0.08870888 C226.7285966 0.09428726 229.2586458 0.09473247 231.78867912 0.08975601 C235.23358707 0.08382838 238.6779445 0.09626042 242.12280273 0.11352539 C243.63621207 0.10451032 243.63621207 0.10451032 245.18019533 0.09531313 C246.56264098 0.10797304 246.56264098 0.10797304 247.97301483 0.12088871 C248.76825923 0.12191784 249.56350364 0.12294697 250.38284636 0.12400728 C253.14863392 0.60287974 254.53442438 1.58476252 256.56140137 3.50120544 C257.06311035 6.27268982 257.06311035 6.27268982 257.05749512 9.59495544 C257.05813965 10.78991638 257.05878418 11.98487732 257.05944824 13.21604919 C257.03946777 14.46515076 257.0194873 15.71425232 256.99890137 17.00120544 C257.00599121 18.25030701 257.01308105 19.49940857 257.02038574 20.78636169 C256.95593106 29.97859094 256.95593106 29.97859094 255.31620783 32.15065342 C253.08620671 33.86692959 251.87655413 33.8779192 249.08044529 33.88152218 C248.15732251 33.88996212 247.23419973 33.89840206 246.28310353 33.90709776 C245.26736018 33.90108771 244.25161683 33.89507767 243.20509338 33.8888855 C241.58839513 33.8969638 241.58839513 33.8969638 239.93903631 33.90520531 C236.30921868 33.91957063 232.67976133 33.91235994 229.04992676 33.90525818 C226.45501917 33.91095725 223.8601141 33.9179197 221.26521301 33.92605591 C214.93756788 33.94327461 208.61002191 33.94407757 202.28235943 33.938843 C197.14038733 33.9348057 191.99844461 33.93623961 186.85647392 33.94159126 C185.75977291 33.9427139 185.75977291 33.9427139 184.64091633 33.94385921 C183.15573585 33.94539065 181.67055537 33.94692899 180.18537491 33.94847418 C166.24945397 33.96221037 152.31358912 33.95675372 138.37766945 33.94528896 C125.62204993 33.93535577 112.86657545 33.9482967 100.11097831 33.97222316 C87.02078525 33.99659267 73.9306598 34.00622731 60.84044451 33.99957043 C53.48836992 33.99607336 46.13640691 33.99834224 38.78434944 34.01582146 C31.8724473 34.03205002 24.96082725 34.02739529 18.04893303 34.00851631 C15.50760834 34.00481539 12.9662633 34.00798228 10.42495728 34.0184021 C6.96454424 34.03151049 3.50506496 34.0201539 0.04469299 34.00241089 C-0.96881963 34.0120159 -1.98233226 34.0216209 -3.02655739 34.03151697 C-9.79315262 33.95977975 -9.79315262 33.95977975 -13.06145573 31.63772678 C-14.84181919 28.87564268 -14.95508046 27.05887929 -14.96984863 23.78245544 C-14.97500488 22.68546326 -14.98016113 21.58847107 -14.98547363 20.45823669 C-14.97000488 19.31741638 -14.95453613 18.17659607 -14.93859863 17.00120544 C-14.95406738 15.86038513 -14.96953613 14.71956482 -14.98547363 13.54417419 C-14.98031738 12.44718201 -14.97516113 11.35018982 -14.96984863 10.21995544 C-14.96533691 9.21899841 -14.9608252 8.21804138 -14.95617676 7.18675232 C-13.39989781 -0.88827995 -6.7108493 -0.06388663 0 0 Z " fill="#000000" transform="translate(128.4385986328125,364.49879455566406)"/>
<path d="M0 0 C0.93147858 0.00359528 1.86295715 0.00719055 2.82266235 0.01089478 C3.79816544 0.01074875 4.77366852 0.01060272 5.7787323 0.01045227 C9.01987899 0.01115184 12.260969 0.01894626 15.50210571 0.02676392 C17.74270089 0.02862794 19.98329648 0.03005192 22.22389221 0.03105164 C28.13404456 0.03487804 34.04417251 0.04470936 39.95431519 0.05575562 C45.98000763 0.06596711 52.005704 0.07054869 58.03140259 0.07559204 C69.86409563 0.08633152 81.69677052 0.10340941 93.52944946 0.12442017 C94.02444946 1.60942017 94.02444946 1.60942017 94.52944946 3.12442017 C160.19944946 3.12442017 225.86944946 3.12442017 293.52944946 3.12442017 C293.52944946 3.45442017 293.52944946 3.78442017 293.52944946 4.12442017 C227.85944946 4.12442017 162.18944946 4.12442017 94.52944946 4.12442017 C94.52944946 10.39442017 94.52944946 16.66442017 94.52944946 23.12442017 C116.63944946 23.12442017 138.74944946 23.12442017 161.52944946 23.12442017 C161.52944946 23.45442017 161.52944946 23.78442017 161.52944946 24.12442017 C139.74944946 24.45442017 117.96944946 24.78442017 95.52944946 25.12442017 C95.19944946 27.76442017 94.86944946 30.40442017 94.52944946 33.12442017 C58.22944946 33.12442017 21.92944946 33.12442017 -15.47055054 33.12442017 C-8.11250877 0.01323221 -8.11250877 0.01323221 0 0 Z " fill="#1E1F20" transform="translate(55.470550537109375,290.8755798339844)"/>
<path d="M0 0 C0.66 0 1.32 0 2 0 C2 23.43 2 46.86 2 71 C2.66 71 3.32 71 4 71 C2.87548273 73.9719385 1.77706209 76.33440687 0 79 C-2.10073853 79.36076355 -2.10073853 79.36076355 -4.72509766 79.34057617 C-5.70596344 79.34034958 -6.68682922 79.34012299 -7.69741821 79.33988953 C-8.75891083 79.32440567 -9.82040344 79.30892181 -10.9140625 79.29296875 C-11.99883881 79.28872391 -13.08361511 79.28447906 -14.20126343 79.28010559 C-17.67609167 79.263273 -21.15034618 79.22561189 -24.625 79.1875 C-26.97655414 79.17245911 -29.32811735 79.15876967 -31.6796875 79.14648438 C-37.45332173 79.11335454 -43.22661989 79.06310982 -49 79 C-49.28875 78.195625 -49.5775 77.39125 -49.875 76.5625 C-50.73262568 73.8673532 -50.73262568 73.8673532 -53 73 C-52.88205038 68.03360043 -52.75782482 63.06741349 -52.62768555 58.10131836 C-52.58427561 56.41060701 -52.54260511 54.71985009 -52.50268555 53.02905273 C-52.44512906 50.60386394 -52.38139351 48.17890585 -52.31640625 45.75390625 C-52.29969376 44.99348526 -52.28298126 44.23306427 -52.26576233 43.44960022 C-52.11387171 38.11387171 -52.11387171 38.11387171 -51 37 C-49.40486107 36.87727151 -47.80445068 36.82218957 -46.20483398 36.79467773 C-45.18385117 36.77473251 -44.16286835 36.75478729 -43.11094666 36.73423767 C-42.0005452 36.71752518 -40.89014374 36.70081268 -39.74609375 36.68359375 C-38.61551041 36.66281265 -37.48492706 36.64203156 -36.32008362 36.62062073 C-32.69262015 36.55500203 -29.06508167 36.49618323 -25.4375 36.4375 C-22.98501814 36.39432649 -20.532544 36.3507126 -18.08007812 36.30664062 C-12.05346573 36.19930816 -6.02677799 36.0975651 0 36 C-0.32452148 34.78054688 -0.64904297 33.56109375 -0.98339844 32.3046875 C-1.75863653 29.19621352 -2.2558844 26.34217951 -2.265625 23.125 C-2.26949219 21.86429687 -2.26949219 21.86429687 -2.2734375 20.578125 C-2.26570313 19.72734375 -2.25796875 18.8765625 -2.25 18 C-2.26160156 16.72382813 -2.26160156 16.72382813 -2.2734375 15.421875 C-2.25666377 9.95364045 -1.531429 5.2506137 0 0 Z " fill="#000000" transform="translate(465,363)"/>
<path d="M0 0 C0.66 0.33 1.32 0.66 2 1 C3.77572892 6.62625689 4.2884145 11.69352515 4.1875 17.5625 C4.18685547 18.27857422 4.18621094 18.99464844 4.18554688 19.73242188 C4.13479922 25.92927497 3.8161206 31.36775879 1 37 C18.16 37 35.32 37 53 37 C54.58645357 40.17290713 54.12078213 43.58825384 54.09765625 47.0703125 C54.0962413 47.86654022 54.09482635 48.66276794 54.09336853 49.48312378 C54.08776345 52.0304538 54.07521014 54.57769647 54.0625 57.125 C54.05748565 58.85025915 54.05292263 60.57551967 54.04882812 62.30078125 C54.03779237 66.53388791 54.02052436 70.76692914 54 75 C53.34 75 52.68 75 52 75 C51.505 76.98 51.505 76.98 51 79 C44.07670562 79.10127533 37.15360164 79.17141266 30.22973633 79.21972656 C27.87354392 79.23986357 25.51740161 79.26717516 23.16137695 79.30175781 C19.77803194 79.35018287 16.3953466 79.37294796 13.01171875 79.390625 C11.42722176 79.42159271 11.42722176 79.42159271 9.81071472 79.45318604 C8.82992447 79.45348816 7.84913422 79.45379028 6.83862305 79.45410156 C5.97480515 79.46298401 5.11098724 79.47186646 4.22099304 79.48101807 C2 79 2 79 0.21313477 77.43029785 C-1.42084696 74.15690861 -1.35343326 71.23122269 -1.2487793 67.66113281 C-1.23946381 66.92903091 -1.23014832 66.19692902 -1.22055054 65.44264221 C-1.18624569 63.02899338 -1.13034236 60.61635685 -1.07421875 58.203125 C-1.0461788 56.52734516 -1.01948911 54.85154223 -0.99409485 53.17572021 C-0.92369972 48.76955392 -0.83497222 44.36394032 -0.74243164 39.95819092 C-0.65120464 35.46059851 -0.5773068 30.96272514 -0.50195312 26.46484375 C-0.351601 17.64286767 -0.18188163 8.82137841 0 0 Z " fill="#000000" transform="translate(33,363)"/>
<path d="M0 0 C144.54 0 289.08 0 438 0 C437.67 1.65 437.34 3.3 437 5 C381.76203134 5.0228687 326.52406315 5.04049941 271.28609068 5.05106533 C264.77072386 5.0523161 258.25535704 5.05361041 251.73999023 5.05493164 C250.44285035 5.05519395 249.14571047 5.05545626 247.80926333 5.05572652 C226.78214454 5.06008262 205.75502848 5.06796984 184.72791132 5.0771528 C163.16613039 5.08649099 141.60435089 5.09205596 120.04256803 5.09408849 C106.72848469 5.09546337 93.41440904 5.09981209 80.10032807 5.10791647 C70.9811561 5.11318597 61.86198813 5.11480383 52.74281474 5.11350138 C47.47471962 5.11285832 42.20663798 5.11387191 36.93854523 5.11920547 C32.12173024 5.12404678 27.3049379 5.12433378 22.4881219 5.12089889 C20.739762 5.12047393 18.99140073 5.12176351 17.24304356 5.12488318 C14.87769495 5.1288605 12.5124295 5.12675495 10.14708233 5.12304783 C8.8298325 5.12342755 7.51258268 5.12380727 6.15541619 5.1241985 C3 5 3 5 0 4 C0 2.68 0 1.36 0 0 Z " fill="#9BA3AB" transform="translate(31,357)"/>
<path d="M0 0 C1.99209558 0.00187101 3.98419163 0.00329167 5.97628784 0.00428772 C11.15461556 0.00805922 16.33291408 0.01784193 21.51123047 0.0289917 C26.82128505 0.03932294 32.13134446 0.04381013 37.44140625 0.04882812 C47.81251265 0.05947046 58.18359762 0.07648018 68.5546875 0.09765625 C68.8846875 1.08765625 69.2146875 2.07765625 69.5546875 3.09765625 C48.1046875 3.42765625 26.6546875 3.75765625 4.5546875 4.09765625 C4.5546875 4.75765625 4.5546875 5.41765625 4.5546875 6.09765625 C7.88622538 7.09147104 10.95553597 7.25108774 14.42480469 7.30297852 C15.60572693 7.32292374 16.78664917 7.34286896 18.00335693 7.36341858 C19.27326477 7.38013107 20.54317261 7.39684357 21.8515625 7.4140625 C23.15546936 7.4348436 24.45937622 7.45562469 25.80279541 7.47703552 C29.26164558 7.53210861 32.7205539 7.58158265 36.17950439 7.62988281 C39.71216988 7.68020597 43.24475139 7.73583547 46.77734375 7.79101562 C53.70305213 7.89841646 60.62883644 7.99990122 67.5546875 8.09765625 C67.8846875 10.07765625 68.2146875 12.05765625 68.5546875 14.09765625 C57.50662319 14.14392636 46.45858179 14.17949829 35.41044044 14.20128059 C30.28075369 14.21173318 25.15113306 14.22591918 20.02148438 14.24853516 C15.07428713 14.27021108 10.12715362 14.28221376 5.17991257 14.28741074 C3.28919852 14.29111596 1.39848809 14.29835098 -0.49219894 14.30911636 C-3.13338607 14.32356158 -5.7743073 14.32563713 -8.41552734 14.32470703 C-9.20314957 14.33189758 -9.99077179 14.33908813 -10.80226135 14.34649658 C-16.21720818 14.32576057 -16.21720818 14.32576057 -18.4453125 12.09765625 C-18.7753125 12.75765625 -19.1053125 13.41765625 -19.4453125 14.09765625 C-20.5796875 14.07703125 -21.7140625 14.05640625 -22.8828125 14.03515625 C-26.26106924 13.68188148 -26.26106924 13.68188148 -27.4453125 15.09765625 C4.2346875 15.09765625 35.9146875 15.09765625 68.5546875 15.09765625 C68.5546875 15.75765625 68.5546875 16.41765625 68.5546875 17.09765625 C3.2146875 17.09765625 -62.1253125 17.09765625 -129.4453125 17.09765625 C-129.4453125 16.43765625 -129.4453125 15.77765625 -129.4453125 15.09765625 C-107.6653125 15.09765625 -85.8853125 15.09765625 -63.4453125 15.09765625 C-63.4453125 10.47765625 -63.4453125 5.85765625 -63.4453125 1.09765625 C-60.34091464 1.04377085 -57.23744943 1.00403886 -54.1328125 0.97265625 C-53.25173828 0.95589844 -52.37066406 0.93914062 -51.46289062 0.921875 C-50.61533203 0.91542969 -49.76777344 0.90898437 -48.89453125 0.90234375 C-48.11424561 0.89187012 -47.33395996 0.88139648 -46.5300293 0.87060547 C-44.4453125 1.09765625 -44.4453125 1.09765625 -41.4453125 3.09765625 C-40.7853125 2.43765625 -40.1253125 1.77765625 -39.4453125 1.09765625 C-36.8205305 0.77867076 -34.29611026 0.58453215 -31.66064453 0.47875977 C-30.86159761 0.44109025 -30.0625507 0.40342073 -29.23929024 0.36460972 C-19.49567282 -0.05147549 -9.7504073 -0.02738628 0 0 Z " fill="#3A3A3A" transform="translate(280.4453125,299.90234375)"/>
<path d="M0 0 C0.94140625 1.890625 0.94140625 1.890625 1.5625 4.25 C2.62429647 7.91116707 3.96338036 10.75992329 6 14 C7.23316997 17.28845325 7.08597725 19.65853154 6 23 C2.45877326 28.08089053 -4.31249725 30.09500848 -10.1328125 31.5234375 C-12.2318173 31.98885249 -12.2318173 31.98885249 -14.875 33.4375 C-17.8825961 34.94129805 -20.80237093 35.97948009 -24 37 C-24.75925781 37.34804687 -25.51851562 37.69609375 -26.30078125 38.0546875 C-29.42131685 39.14755236 -31.83017548 39.16572132 -35.125 39.0625 C-38.5219807 38.96508035 -40.759093 38.91969767 -44 40 C-44 39.34 -44 38.68 -44 38 C-45.98 38.495 -45.98 38.495 -48 39 C-52.91334278 33.95017547 -54.87841472 28.66106664 -57 22 C-52.21763731 18.85400597 -47.03300978 16.7858577 -41.7734375 14.5859375 C-40.78880524 14.17082916 -39.80417297 13.75572083 -38.78970337 13.32803345 C-36.71438532 12.45390459 -34.63830776 11.58157701 -32.56152344 10.7109375 C-29.37793091 9.37622877 -26.19659023 8.03626912 -23.015625 6.6953125 C-20.99752446 5.84604846 -18.97929953 4.99707992 -16.9609375 4.1484375 C-16.00778656 3.74740814 -15.05463562 3.34637878 -14.07260132 2.93319702 C-13.18803253 2.56256134 -12.30346375 2.19192566 -11.39208984 1.81005859 C-10.61441254 1.48379486 -9.83673523 1.15753113 -9.03549194 0.82138062 C-3.37452631 -1.46298482 -3.37452631 -1.46298482 0 0 Z " fill="#333333" transform="translate(98,104)"/>
<path d="M0 0 C3.35801532 0.59439419 6.35821497 1.42545755 9.51147461 2.71826172 C10.37264389 3.06887665 11.23381317 3.41949158 12.12107849 3.7807312 C13.03889603 4.15988678 13.95671356 4.53904236 14.90234375 4.9296875 C15.85766495 5.32068634 16.81298615 5.71168518 17.79725647 6.11453247 C19.81452169 6.94125469 21.83089634 7.77015286 23.84643555 8.60107422 C26.9209057 9.86816096 29.99827116 11.1279915 33.07617188 12.38671875 C35.03923827 13.19228014 37.0021346 13.99825609 38.96484375 14.8046875 C39.88063705 15.17979462 40.79643036 15.55490173 41.73997498 15.94137573 C54.559684 21.23524062 54.559684 21.23524062 56.0390625 23.8046875 C55.98159484 27.03436992 54.81022933 29.24747124 53.375 32.125 C52.61316406 33.70667969 52.61316406 33.70667969 51.8359375 35.3203125 C49.19529444 39.17452769 46.58347328 39.64811705 42.1875 40.625 C41.465625 40.74875 40.74375 40.8725 40 41 C40 40.34 40 39.68 40 39 C39.01 39.495 39.01 39.495 38 40 C29.03810585 41.02171432 21.90968961 39.25113611 14 35 C13.34 34.34 12.68 33.68 12 33 C10.68038004 32.61595305 9.3431286 32.29136652 8 32 C-4.42150231 28.39017444 -4.42150231 28.39017444 -8 22 C-8.22931991 16.95496208 -5.49305063 12.78041767 -3.2109375 8.4140625 C-1.84132041 5.68366457 -0.84889001 2.93252913 0 0 Z " fill="#323232" transform="translate(402,103)"/>
<path d="M0 0 C66 0 132 0 200 0 C200 0.66 200 1.32 200 2 C198.34987411 2.0154612 198.34987411 2.0154612 196.66641235 2.03123474 C186.22350967 2.12962459 175.78065796 2.23241099 165.33783913 2.33933926 C159.97101252 2.39415547 154.60418025 2.44750204 149.23730469 2.49731445 C144.04361339 2.54557647 138.84997702 2.59792802 133.656353 2.65294075 C131.68957286 2.67308843 129.72277784 2.69184115 127.75597 2.70907402 C118.06449495 2.79487698 108.38843426 2.95325726 98.70849609 3.45727539 C97.55811828 3.51432349 97.55811828 3.51432349 96.3845005 3.57252407 C92.89581905 3.48366172 92.89581905 3.48366172 90 5 C89.76924918 6.34747084 89.58846937 7.70377565 89.4375 9.0625 C89.293125 10.361875 89.14875 11.66125 89 13 C88.67 13 88.34 13 88 13 C87.77213542 10.94921875 87.54427083 8.8984375 87.31640625 6.84765625 C87.18113386 4.98859771 87.18113386 4.98859771 86 4 C84.58672053 3.84379445 83.1664541 3.74943827 81.74609375 3.68359375 C80.89208984 3.64169922 80.03808594 3.59980469 79.15820312 3.55664062 C78.26037109 3.51732422 77.36253906 3.47800781 76.4375 3.4375 C75.53580078 3.39431641 74.63410156 3.35113281 73.70507812 3.30664062 C71.47021515 3.20021858 69.23523692 3.09820012 67 3 C67 4.98 67 6.96 67 9 C71.62 9 76.24 9 81 9 C81 9.33 81 9.66 81 10 C76.38 10 71.76 10 67 10 C67 11.98 67 13.96 67 16 C44.89 16 22.78 16 0 16 C0 10.72 0 5.44 0 0 Z " fill="#393939" transform="translate(150,298)"/>
<path d="M0 0 C13.2 0 26.4 0 40 0 C40 8.91 40 17.82 40 27 C26.8 27 13.6 27 0 27 C0 18.09 0 9.18 0 0 Z " fill="#DADADA" transform="translate(410,294)"/>
<path d="M0 0 C13.2 0 26.4 0 40 0 C40 8.91 40 17.82 40 27 C26.8 27 13.6 27 0 27 C0 18.09 0 9.18 0 0 Z " fill="#DBDBDB" transform="translate(50,294)"/>
<path d="M0 0 C12.87 0 25.74 0 39 0 C39 8.91 39 17.82 39 27 C26.13 27 13.26 27 0 27 C0 18.09 0 9.18 0 0 Z " fill="#DCDCDC" transform="translate(360,294)"/>
<path d="M0 0 C12.87 0 25.74 0 39 0 C39 8.91 39 17.82 39 27 C26.13 27 13.26 27 0 27 C0 18.09 0 9.18 0 0 Z " fill="#DBDBDB" transform="translate(101,294)"/>
<path d="M0 0 C0.96164063 -0.00257812 1.92328125 -0.00515625 2.9140625 -0.0078125 C5.375 0.125 5.375 0.125 7.375 1.125 C9.60022523 7.44932432 9.60022523 7.44932432 8.375 11.125 C9.035 11.125 9.695 11.125 10.375 11.125 C13.03997597 17.70606662 15.61691074 24.1279639 16.97265625 31.11328125 C17.58516813 34.17584067 18.4838004 37.13311563 19.375 40.125 C16.51431863 41.31614889 15.36747516 41.12240455 12.38232422 40.09277344 C11.2429541 39.56200195 10.10358398 39.03123047 8.9296875 38.484375 C8.31860138 38.20152649 7.70751526 37.91867798 7.07791138 37.6272583 C5.78936421 37.0275079 4.5035034 36.42195643 3.22021484 35.81103516 C1.2565092 34.87809248 -0.71633152 33.96717732 -2.69140625 33.05859375 C-12.34962041 28.53806939 -12.34962041 28.53806939 -14.625 25.125 C-15.13548991 22.7256974 -15.43324997 20.55809476 -15.625 18.125 C-15.71394531 17.15175781 -15.80289063 16.17851563 -15.89453125 15.17578125 C-16.31685321 7.19094974 -16.31685321 7.19094974 -14.42578125 4.27734375 C-9.95717134 0.41655483 -5.67132752 -0.0152866 0 0 Z M13.375 24.125 C14.375 26.125 14.375 26.125 14.375 26.125 Z " fill="#1A1A1A" transform="translate(133.625,57.875)"/>
<path d="M0 0 C6.23202372 0.05928203 10.61707211 0.67000294 15.3125 5.0625 C17.19595543 8.94020235 16.70587605 12.25737185 15.375 16.25 C15.45816522 18.50793582 15.6300971 20.7454305 15.828125 22.99609375 C15.14604633 26.38884712 13.13690656 27.26336962 10.375 29.25 C6.14110562 31.54096255 1.75039497 33.49461064 -2.625 35.5 C-4.3884375 36.33144531 -4.3884375 36.33144531 -6.1875 37.1796875 C-7.8890625 37.96472656 -7.8890625 37.96472656 -9.625 38.765625 C-10.65625 39.24290039 -11.6875 39.72017578 -12.75 40.21191406 C-15.60680983 41.24343202 -17.61949276 41.46961197 -20.625 41.25 C-19.985625 40.26 -19.34625 39.27 -18.6875 38.25 C-16.76618232 34.92284012 -16.26652337 32.14522768 -15.96875 28.2890625 C-15.45548015 25.24443906 -13.99321648 22.86475532 -12.53125 20.17578125 C-11.18761004 17.32054634 -11.05443598 14.36341088 -10.625 11.25 C-6.7758997 0.10088188 -6.7758997 0.10088188 0 0 Z " fill="#1A1A1A" transform="translate(365.625,57.75)"/>
<path d="M0 0 C29.7 0 59.4 0 90 0 C90.495 1.485 90.495 1.485 91 3 C69.55 3.33 48.1 3.66 26 4 C26 4.66 26 5.32 26 6 C29.33153788 6.99381479 32.40084847 7.15343149 35.87011719 7.20532227 C37.05103943 7.22526749 38.23196167 7.24521271 39.44866943 7.26576233 C40.71857727 7.28247482 41.98848511 7.29918732 43.296875 7.31640625 C44.60078186 7.33718735 45.90468872 7.35796844 47.24810791 7.37937927 C50.70695808 7.43445236 54.1658664 7.4839264 57.62481689 7.53222656 C61.15748238 7.58254972 64.69006389 7.63817922 68.22265625 7.69335938 C75.14836463 7.80076021 82.07414894 7.90224497 89 8 C89.495 10.97 89.495 10.97 90 14 C78.95193569 14.04627011 67.90389429 14.08184204 56.85575294 14.10362434 C51.72606619 14.11407693 46.59644556 14.12826293 41.46679688 14.15087891 C36.51959963 14.17255483 31.57246612 14.18455751 26.62522507 14.18975449 C24.73451102 14.19345971 22.84380059 14.20069473 20.95311356 14.21146011 C18.31192643 14.22590533 15.6710052 14.22798088 13.02978516 14.22705078 C12.24216293 14.23424133 11.45454071 14.24143188 10.64305115 14.24884033 C5.22810432 14.22810432 5.22810432 14.22810432 3 12 C2.34 12.66 1.68 13.32 1 14 C0.83165067 12.22932584 0.66538091 10.45845388 0.5 8.6875 C0.4071875 7.70136719 0.314375 6.71523438 0.21875 5.69921875 C0 3 0 3 0 0 Z " fill="#2E2E2E" transform="translate(259,300)"/>
<path d="M0 0 C2.09780742 6.20853621 4.01486313 12.41318239 5.6875 18.75 C6.02491211 19.98556641 6.02491211 19.98556641 6.36914062 21.24609375 C6.58119141 22.04660156 6.79324219 22.84710938 7.01171875 23.671875 C7.20209717 24.3844043 7.39247559 25.09693359 7.58862305 25.83105469 C8 28 8 28 8 33 C-11.8 33 -31.6 33 -52 33 C-51.505 32.01 -51.505 32.01 -51 31 C-50.91456105 28.89471067 -50.89285275 26.78668843 -50.90234375 24.6796875 C-50.90484131 23.54772949 -50.90733887 22.41577148 -50.90991211 21.24951172 C-50.91901611 19.80592285 -50.92812012 18.36233398 -50.9375 16.875 C-50.958125 12.29625 -50.97875 7.7175 -51 3 C-64.53 3 -78.06 3 -92 3 C-92 2.34 -92 1.68 -92 1 C-61.32811619 0.08047932 -30.68456703 -0.12411306 0 0 Z M-41 3 C-41 11.91 -41 20.82 -41 30 C-27.8 30 -14.6 30 -1 30 C-1 21.09 -1 12.18 -1 3 C-14.2 3 -27.4 3 -41 3 Z " fill="#181819" transform="translate(451,291)"/>
<path d="M0 0 C12.87 0 25.74 0 39 0 C39 4.62 39 9.24 39 14 C26.13 14 13.26 14 0 14 C0 9.38 0 4.76 0 0 Z " fill="#F96401" transform="translate(371,336)"/>
<path d="M0 0 C12.54 0 25.08 0 38 0 C38 4.62 38 9.24 38 14 C25.46 14 12.92 14 0 14 C0 9.38 0 4.76 0 0 Z " fill="#FC6500" transform="translate(90,336)"/>
<path d="M0 0 C5.96313166 -0.02464574 11.92623395 -0.042834 17.8894043 -0.05493164 C19.91968298 -0.05997278 21.94995802 -0.06680557 23.98022461 -0.07543945 C26.89177347 -0.08751467 29.8032745 -0.09323034 32.71484375 -0.09765625 C33.6283812 -0.10281754 34.54191864 -0.10797882 35.48313904 -0.11329651 C37.65575427 -0.11349168 39.82827296 -0.06211805 42 0 C44.04266429 2.04266429 43.18507944 6.13691434 43.1875 8.9375 C43.19974609 9.67935547 43.21199219 10.42121094 43.22460938 11.18554688 C43.22988478 13.12513629 43.12188902 15.0642371 43 17 C40.33929795 19.66070205 38.34520322 19.24916545 34.72607422 19.27789307 C33.43854248 19.27182037 33.43854248 19.27182037 32.125 19.265625 C30.80459717 19.26849518 30.80459717 19.26849518 29.45751953 19.27142334 C27.59472366 19.27278552 25.73191831 19.26908682 23.86914062 19.26074219 C21.01150264 19.25004307 18.15449334 19.26063632 15.296875 19.2734375 C13.48958194 19.27211591 11.68228927 19.26955353 9.875 19.265625 C9.01664551 19.26967346 8.15829102 19.27372192 7.27392578 19.27789307 C1.22991745 19.22991745 1.22991745 19.22991745 -1 17 C-1.17201285 14.45770841 -1.23257617 12.03850004 -1.1875 9.5 C-1.18685547 8.81035156 -1.18621094 8.12070312 -1.18554688 7.41015625 C-1.14055525 2.28111049 -1.14055525 2.28111049 0 0 Z M2 2 C2 6.62 2 11.24 2 16 C14.54 16 27.08 16 40 16 C40 11.38 40 6.76 40 2 C27.46 2 14.92 2 2 2 Z " fill="#090604" transform="translate(88,334)"/>
<path d="M0 0 C1.33278992 0.00303635 1.33278992 0.00303635 2.69250488 0.00613403 C3.5987561 0.00517731 4.50500732 0.00422058 5.4387207 0.00323486 C7.35876535 0.002553 9.27881229 0.00440771 11.19885254 0.00857544 C14.14861192 0.01392361 17.09821902 0.00863066 20.04797363 0.00222778 C21.90865105 0.00288856 23.76932838 0.00416972 25.63000488 0.00613403 C26.51853149 0.0041098 27.40705811 0.00208557 28.32250977 0 C34.546305 0.02399665 34.546305 0.02399665 35.66125488 1.13894653 C35.7878371 3.79717311 35.84645702 6.41782077 35.84875488 9.07644653 C35.86100098 9.818302 35.87324707 10.56015747 35.88586426 11.32449341 C35.89113966 13.26408283 35.7831439 15.20318363 35.66125488 17.13894653 C33.02584935 19.77435206 31.12590371 19.37693862 27.53979492 19.39118958 C26.70331421 19.38400406 25.8668335 19.37681854 25.00500488 19.36941528 C23.71789612 19.36872795 23.71789612 19.36872795 22.40478516 19.36802673 C20.58905659 19.36500327 18.77333064 19.35711416 16.9576416 19.34475708 C14.17255501 19.32652053 11.38780114 19.32424724 8.60266113 19.32449341 C6.8409395 19.31957749 5.07922012 19.31374885 3.31750488 19.30691528 C2.48102417 19.30580246 1.64454346 19.30468964 0.78271484 19.30354309 C-5.10661455 19.25501182 -5.10661455 19.25501182 -7.33874512 18.13894653 C-7.36558824 15.32638372 -7.38550699 12.51407412 -7.40124512 9.70144653 C-7.40962402 8.89900513 -7.41800293 8.09656372 -7.42663574 7.26980591 C-7.43525942 5.22599432 -7.39102662 3.18210752 -7.33874512 1.13894653 C-5.41617337 -0.78362522 -2.55789404 0.00986229 0 0 Z M-5.33874512 2.13894653 C-5.33874512 6.75894653 -5.33874512 11.37894653 -5.33874512 16.13894653 C7.53125488 16.13894653 20.40125488 16.13894653 33.66125488 16.13894653 C33.66125488 11.51894653 33.66125488 6.89894653 33.66125488 2.13894653 C20.79125488 2.13894653 7.92125488 2.13894653 -5.33874512 2.13894653 Z " fill="#060402" transform="translate(376.3387451171875,333.8610534667969)"/>
<path d="M0 0 C1.97879894 2.96819841 2.64919872 4.95283371 3.5078125 8.3671875 C3.90419922 9.94306641 3.90419922 9.94306641 4.30859375 11.55078125 C4.57800781 12.64777344 4.84742188 13.74476563 5.125 14.875 C5.40214844 15.96425781 5.67929687 17.05351562 5.96484375 18.17578125 C6.35736328 19.75552734 6.35736328 19.75552734 6.7578125 21.3671875 C6.9964502 22.32737793 7.23508789 23.28756836 7.48095703 24.27685547 C8 27 8 27 8 32 C-6.85 32 -21.7 32 -37 32 C-36.505 30.515 -36.505 30.515 -36 29 C-24.45 29 -12.9 29 -1 29 C-0.67 19.43 -0.34 9.86 0 0 Z " fill="#202122" transform="translate(451,292)"/>
<path d="M0 0 C21.12 0 42.24 0 64 0 C64 1.32 64 2.64 64 4 C42.88 4 21.76 4 0 4 C0 2.68 0 1.36 0 0 Z " fill="#383838" transform="translate(151,310)"/>
<path d="M0 0 C21.12 0 42.24 0 64 0 C64 1.32 64 2.64 64 4 C42.88 4 21.76 4 0 4 C0 2.68 0 1.36 0 0 Z " fill="#393939" transform="translate(151,304)"/>
<path d="M0 0 C21.45 0 42.9 0 65 0 C64.67 1.32 64.34 2.64 64 4 C42.88 4 21.76 4 0 4 C0 2.68 0 1.36 0 0 Z " fill="#393939" transform="translate(285,304)"/>
<path d="M0 0 C0.78552246 0.01047363 1.57104492 0.02094727 2.38037109 0.03173828 C3.23115234 0.03818359 4.08193359 0.04462891 4.95849609 0.05126953 C6.29267578 0.07640625 6.29267578 0.07640625 7.65380859 0.10205078 C8.99958984 0.11558594 8.99958984 0.11558594 10.37255859 0.12939453 C12.59142182 0.15299946 14.8101483 0.18887116 17.02880859 0.22705078 C17.02880859 4.51705078 17.02880859 8.80705078 17.02880859 13.22705078 C13.90358087 13.28083099 10.77927149 13.32061653 7.65380859 13.35205078 C6.76435547 13.36880859 5.87490234 13.38556641 4.95849609 13.40283203 C4.10771484 13.40927734 3.25693359 13.41572266 2.38037109 13.42236328 C1.2020874 13.43807373 1.2020874 13.43807373 0 13.45410156 C-1.97119141 13.22705078 -1.97119141 13.22705078 -3.97119141 11.22705078 C-4.23681641 9.13330078 -4.23681641 9.13330078 -4.22119141 6.72705078 C-4.22634766 5.93298828 -4.23150391 5.13892578 -4.23681641 4.32080078 C-3.86977346 1.42763877 -2.93207084 0.33772924 0 0 Z " fill="#B4B2B3" transform="translate(265.97119140625,300.77294921875)"/>
<path d="M0 0 C3.14588944 -0.02683697 6.29155271 -0.04675902 9.4375 -0.0625 C10.33533203 -0.07087891 11.23316406 -0.07925781 12.15820312 -0.08789062 C13.01220703 -0.09111328 13.86621094 -0.09433594 14.74609375 -0.09765625 C15.93223267 -0.10551147 15.93223267 -0.10551147 17.14233398 -0.11352539 C19 0 19 0 20 1 C20.1245486 2.64230364 20.17568524 4.29052276 20.1875 5.9375 C20.20167969 6.83339844 20.21585938 7.72929687 20.23046875 8.65234375 C20 11 20 11 18 13 C16.12060547 13.22705078 16.12060547 13.22705078 13.8671875 13.1953125 C12.65869141 13.18564453 12.65869141 13.18564453 11.42578125 13.17578125 C10.58402344 13.15902344 9.74226562 13.14226562 8.875 13.125 C7.60076172 13.11146484 7.60076172 13.11146484 6.30078125 13.09765625 C4.20040116 13.07405647 2.10016556 13.03818483 0 13 C0 8.71 0 4.42 0 0 Z " fill="#B8B6B6" transform="translate(217,301)"/>
<path d="M0 0 C0.78955078 -0.01224609 1.57910156 -0.02449219 2.39257812 -0.03710938 C4.45057435 -0.04237279 6.50812009 0.06543715 8.5625 0.1875 C10.5625 2.1875 10.5625 2.1875 10.7578125 4.7890625 C10.69270833 7.58854167 10.62760417 10.38802083 10.5625 13.1875 C6.2725 13.1875 1.9825 13.1875 -2.4375 13.1875 C-2.4375 10.5475 -2.4375 7.9075 -2.4375 5.1875 C-3.0975 5.1875 -3.7575 5.1875 -4.4375 5.1875 C-4.4375 7.8275 -4.4375 10.4675 -4.4375 13.1875 C-6.0875 13.1875 -7.7375 13.1875 -9.4375 13.1875 C-9.46436553 11.20840602 -9.48383375 9.22921029 -9.5 7.25 C-9.51160156 6.14785156 -9.52320313 5.04570312 -9.53515625 3.91015625 C-9.33226762 -1.74637881 -4.49544995 0.00365187 0 0 Z " fill="#B8B7B7" transform="translate(249.4375,300.8125)"/>
<path d="M0 0 C0.33 0.66 0.66 1.32 1 2 C22.45 2 43.9 2 66 2 C66 3.32 66 4.64 66 6 C44.22 6 22.44 6 0 6 C0 4.02 0 2.04 0 0 Z " fill="#3C3C3C" transform="translate(283,308)"/>
<path d="M0 0 C3.44165321 0.35299007 5.06872538 1.04581692 8 3 C9.44536302 3.51697441 10.90553257 3.99365062 12.375 4.4375 C15.90223612 5.57680302 18.99199566 6.76825484 22 9 C22 9.66 22 10.32 22 11 C21.34 11 20.68 11 20 11 C20 12.65 20 14.3 20 16 C18 17 18 17 16.27587891 16.48681641 C15.59960449 16.19468262 14.92333008 15.90254883 14.2265625 15.6015625 C13.4840625 15.28703125 12.7415625 14.9725 11.9765625 14.6484375 C11.20054687 14.31070313 10.42453125 13.97296875 9.625 13.625 C8.09742323 12.96885964 6.56880798 12.31513064 5.0390625 11.6640625 C4.36053223 11.36967285 3.68200195 11.0752832 2.98291016 10.77197266 C1.00760021 10.00295886 -0.9346609 9.46800503 -3 9 C-2.25 2.25 -2.25 2.25 0 0 Z " fill="#020202" transform="translate(289,167)"/>
<path d="M0 0 C0.33 2.31 0.66 4.62 1 7 C-0.98969233 8.02035504 -2.99300751 9.01410895 -5 10 C-5.74636719 10.37125 -6.49273437 10.7425 -7.26171875 11.125 C-8.43154297 11.681875 -8.43154297 11.681875 -9.625 12.25 C-10.35976562 12.60578125 -11.09453125 12.9615625 -11.8515625 13.328125 C-14.32929721 14.10298022 -15.58480889 13.85242039 -18 13 C-18.33 13.99 -18.66 14.98 -19 16 C-19.66 16 -20.32 16 -21 16 C-21.36279456 14.71073008 -21.71496698 13.41846728 -22.0625 12.125 C-22.25972656 11.40570313 -22.45695313 10.68640625 -22.66015625 9.9453125 C-23 8 -23 8 -22 6 C-18.5625 4.8125 -18.5625 4.8125 -15 4 C-14.34 4.33 -13.68 4.66 -13 5 C-12.67 4.01 -12.34 3.02 -12 2 C-10.29296875 1.015625 -10.29296875 1.015625 -8.1875 0.25 C-7.50042969 -0.01296875 -6.81335938 -0.2759375 -6.10546875 -0.546875 C-3.71856031 -1.06056958 -2.29362227 -0.76282269 0 0 Z " fill="#000000" transform="translate(212,168)"/>
<path d="M0 0 C13.86 0 27.72 0 42 0 C42 0.99 42 1.98 42 3 C28.14 3 14.28 3 0 3 C0 2.01 0 1.02 0 0 Z " fill="#161618" transform="translate(49,291)"/>
<path d="M0 0 C13.86 0 27.72 0 42 0 C41.67 0.99 41.34 1.98 41 3 C27.47 3 13.94 3 0 3 C0 2.01 0 1.02 0 0 Z " fill="#161618" transform="translate(100,291)"/>
<path d="M0 0 C12.54 0 25.08 0 38 0 C38 4.62 38 9.24 38 14 C25.46 14 12.92 14 0 14 C0 9.38 0 4.76 0 0 Z M1 1 C1 2.65 1 4.3 1 6 C1.99 6 2.98 6 4 6 C4 6.66 4 7.32 4 8 C3.01 8 2.02 8 1 8 C1 9.65 1 11.3 1 13 C12.88 13 24.76 13 37 13 C37 11.68 37 10.36 37 9 C36.01 9 35.02 9 34 9 C34.33 8.01 34.66 7.02 35 6 C35.66 5.67 36.32 5.34 37 5 C37 3.68 37 2.36 37 1 C25.12 1 13.24 1 1 1 Z " fill="#B65213" transform="translate(90,336)"/>
<path d="M0 0 C4.35741276 1.49397009 8.06310259 3.15692311 12.01171875 5.546875 C14.32863329 6.26853691 16.66020798 6.94747029 19.01171875 7.546875 C19.01171875 8.206875 19.01171875 8.866875 19.01171875 9.546875 C10.85971509 9.81661042 3.27438211 9.78342862 -3.98828125 5.546875 C-3.98828125 3.896875 -3.98828125 2.246875 -3.98828125 0.546875 C-1.98828125 -0.453125 -1.98828125 -0.453125 0 0 Z " fill="#ACADAC" transform="translate(312.98828125,177.453125)"/>
<path d="M0 0 C0.33 1.65 0.66 3.3 1 5 C-3.56943249 7.62215126 -7.13016568 8.44010215 -12.375 8.6875 C-14.24285156 8.78611328 -14.24285156 8.78611328 -16.1484375 8.88671875 C-17.08945313 8.92410156 -18.03046875 8.96148437 -19 9 C-19 8.01 -19 7.02 -19 6 C-16.21175893 4.14117262 -15.07992734 3.76998183 -12 3 C-10.865625 2.484375 -9.73125 1.96875 -8.5625 1.4375 C-5.30136344 0.12160279 -3.43642959 -0.31240269 0 0 Z " fill="#AFAFAF" transform="translate(190,178)"/>
<path d="M0 0 C12.87 0 25.74 0 39 0 C39 4.62 39 9.24 39 14 C38.67 14 38.34 14 38 14 C38 12.02 38 10.04 38 8 C36.68 8 35.36 8 34 8 C34.33 7.01 34.66 6.02 35 5 C35.66 5 36.32 5 37 5 C37.33 3.68 37.66 2.36 38 1 C26.12 1 14.24 1 2 1 C2 2.32 2 3.64 2 5 C2.99 5 3.98 5 5 5 C5 6.32 5 7.64 5 9 C4.01 9.33 3.02 9.66 2 10 C1.34 11.32 0.68 12.64 0 14 C0 9.38 0 4.76 0 0 Z " fill="#823609" transform="translate(371,336)"/>
<path d="M0 0 C0.66 0 1.32 0 2 0 C2 1.98 2 3.96 2 6 C6.62 6 11.24 6 16 6 C16 6.33 16 6.66 16 7 C11.38 7 6.76 7 2 7 C2 8.98 2 10.96 2 13 C1.34 13 0.68 13 0 13 C0 11.68 0 10.36 0 9 C-14.19 8.67 -28.38 8.34 -43 8 C-43 7.67 -43 7.34 -43 7 C-28.81 7 -14.62 7 0 7 C0 5.68 0 4.36 0 3 C-1.32 2.67 -2.64 2.34 -4 2 C-2.68 2 -1.36 2 0 2 C0 1.34 0 0.68 0 0 Z " fill="#292929" transform="translate(215,301)"/>
<path d="M0 0 C5.75 0.875 5.75 0.875 8 2 C7.34 4.64 6.68 7.28 6 10 C3.69 9.34 1.38 8.68 -1 8 C-1.93065133 5.39417629 -2.14917407 4.35801776 -1.0625 1.75 C-0.711875 1.1725 -0.36125 0.595 0 0 Z " fill="#F16C13" transform="translate(455,104)"/>
<path d="M0 0 C0.66 2.31 1.32 4.62 2 7 C-0.90600261 8.25664978 -2.79604584 9 -6 9 C-7.38111722 6.7252187 -8.05694702 5.49828639 -7.75 2.8125 C-6.27065435 -0.76258533 -3.41086236 -0.08975954 0 0 Z " fill="#F46B0E" transform="translate(45,104)"/>
<path d="M0 0 C14.52 0 29.04 0 44 0 C44 0.33 44 0.66 44 1 C42.06833984 1.09087891 42.06833984 1.09087891 40.09765625 1.18359375 C38.41925841 1.26798247 36.74087364 1.3526313 35.0625 1.4375 C33.78729492 1.49647461 33.78729492 1.49647461 32.48632812 1.55664062 C31.67744141 1.59853516 30.86855469 1.64042969 30.03515625 1.68359375 C28.91185913 1.73858032 28.91185913 1.73858032 27.76586914 1.79467773 C25.97538674 1.81771063 25.97538674 1.81771063 25 3 C24.76924918 4.34747084 24.58846937 5.70377565 24.4375 7.0625 C24.293125 8.361875 24.14875 9.66125 24 11 C23.67 11 23.34 11 23 11 C22.77213542 8.94921875 22.54427083 6.8984375 22.31640625 4.84765625 C22.18113386 2.98859771 22.18113386 2.98859771 21 2 C19.44051458 1.84313751 17.87457332 1.74923361 16.30859375 1.68359375 C15.36435547 1.64169922 14.42011719 1.59980469 13.44726562 1.55664062 C12.45404297 1.51732422 11.46082031 1.47800781 10.4375 1.4375 C9.44041016 1.39431641 8.44332031 1.35113281 7.41601562 1.30664062 C4.9441585 1.20019702 2.4721969 1.09818072 0 1 C0 0.67 0 0.34 0 0 Z " fill="#1E1E1E" transform="translate(215,300)"/>
<path d="M0 0 C0.99 0 1.98 0 3 0 C3 3.96 3 7.92 3 12 C-4.59 12 -12.18 12 -20 12 C-20 11.67 -20 11.34 -20 11 C-18.71222656 10.93941406 -17.42445313 10.87882812 -16.09765625 10.81640625 C-14.41925841 10.73201753 -12.74087364 10.6473687 -11.0625 10.5625 C-9.78729492 10.50352539 -9.78729492 10.50352539 -8.48632812 10.44335938 C-7.67744141 10.40146484 -6.86855469 10.35957031 -6.03515625 10.31640625 C-5.2862915 10.27974854 -4.53742676 10.24309082 -3.76586914 10.20532227 C-1.97538674 10.18228937 -1.97538674 10.18228937 -1 9 C-0.76807135 7.48530552 -0.58784762 5.96245438 -0.4375 4.4375 C-0.35371094 3.61121094 -0.26992187 2.78492188 -0.18359375 1.93359375 C-0.09271484 0.97646484 -0.09271484 0.97646484 0 0 Z " fill="#3B3B3B" transform="translate(237,303)"/>
<path d="M0 0 C2.31 0 4.62 0 7 0 C6.360625 0.45375 5.72125 0.9075 5.0625 1.375 C2.01774843 5.25013836 2.18350135 9.1922647 2 14 C1.67 14 1.34 14 1 14 C0.83165067 12.22932584 0.66538091 10.45845388 0.5 8.6875 C0.4071875 7.70136719 0.314375 6.71523438 0.21875 5.69921875 C0 3 0 3 0 0 Z " fill="#2D2D2D" transform="translate(259,300)"/>
<path d="M0 0 C2 2 2 2 2.125 5.625 C2.08375 6.73875 2.0425 7.8525 2 9 C0.02 9.99 0.02 9.99 -2 11 C-1.125 3.375 -1.125 3.375 0 0 Z " fill="#292C2E" transform="translate(48,292)"/>
<path d="M0 0 C0.33 1.32 0.66 2.64 1 4 C1.99 4 2.98 4 4 4 C4 5.32 4 6.64 4 8 C2.68 8.33 1.36 8.66 0 9 C0 6.03 0 3.06 0 0 Z " fill="#B84C06" transform="translate(372,337)"/>
<path d="" fill="#000000" transform="translate(0,0)"/>
<path d="M0 0 C2 1 2 1 2 1 Z " fill="#282828" transform="translate(67,143)"/>
<path d="" fill="#000000" transform="translate(0,0)"/>
<path d="M0 0 C2 1 2 1 2 1 Z " fill="#CACACA" transform="translate(56,83)"/>
<path d="M0 0 C2 1 2 1 2 1 Z " fill="#8CACAC" transform="translate(431,80)"/>
<path d="" fill="#000000" transform="translate(0,0)"/>
<path d="" fill="#000000" transform="translate(0,0)"/>
<path d="" fill="#808080" transform="translate(0,0)"/>
<path d="" fill="#AAAAAA" transform="translate(0,0)"/>
<path d="" fill="#B5B5B5" transform="translate(0,0)"/>
<path d="" fill="#C8C8C8" transform="translate(0,0)"/>
<path d="" fill="#CDCDCD" transform="translate(0,0)"/>
<path d="" fill="#808080" transform="translate(0,0)"/>
<path d="" fill="#E5E5E5" transform="translate(0,0)"/>
<path d="" fill="#FFFFFF" transform="translate(0,0)"/>
<path d="" fill="#808080" transform="translate(0,0)"/>
<path d="" fill="#B5B5B5" transform="translate(0,0)"/>
<path d="" fill="#000000" transform="translate(0,0)"/>
<path d="" fill="#ABABAB" transform="translate(0,0)"/>
<path d="" fill="#878787" transform="translate(0,0)"/>
<path d="" fill="#000000" transform="translate(0,0)"/>
<path d="" fill="#A0A0A0" transform="translate(0,0)"/>
<path d="" fill="#000000" transform="translate(0,0)"/>
<path d="" fill="#C6C6C6" transform="translate(0,0)"/>
<path d="" fill="#333333" transform="translate(0,0)"/>
<path d="" fill="#C4C4C4" transform="translate(0,0)"/>
<path d="" fill="#454545" transform="translate(0,0)"/>
<path d="" fill="#545454" transform="translate(0,0)"/>
<path d="" fill="#AAAAAA" transform="translate(0,0)"/>
<path d="" fill="#AAAAAA" transform="translate(0,0)"/>
<path d="" fill="#AAAAAA" transform="translate(0,0)"/>
<path d="" fill="#AAAAAA" transform="translate(0,0)"/>
<path d="" fill="#555555" transform="translate(0,0)"/>
<path d="" fill="#4E4E4E" transform="translate(0,0)"/>
<path d="" fill="#B1B1B1" transform="translate(0,0)"/>
<path d="" fill="#B5B5B5" transform="translate(0,0)"/>
<path d="" fill="#B0B0B0" transform="translate(0,0)"/>
<path d="" fill="#AFAFAF" transform="translate(0,0)"/>
<path d="" fill="#989898" transform="translate(0,0)"/>
<path d="" fill="#A2A2A2" transform="translate(0,0)"/>
<path d="" fill="#C6C6C6" transform="translate(0,0)"/>
<path d="" fill="#000000" transform="translate(0,0)"/>
<path d="" fill="#000000" transform="translate(0,0)"/>
</svg>
